<?xml version="1.0" encoding="UTF-8"?>
<!DOCTYPE svg PUBLIC "-//W3C//DTD SVG 1.1//EN" "http://www.w3.org/Graphics/SVG/1.1/DTD/svg11.dtd">
<!-- Creator: CorelDRAW -->
<svg xmlns="http://www.w3.org/2000/svg" xml:space="preserve" width="72.1571mm" height="102.744mm" version="1.1" style="shape-rendering:geometricPrecision; text-rendering:geometricPrecision; image-rendering:optimizeQuality; fill-rule:evenodd; clip-rule:evenodd"
viewBox="0 0 3272.61 4659.86"
 xmlns:xlink="http://www.w3.org/1999/xlink"
 xmlns:xodm="http://www.corel.com/coreldraw/odm/2003">
 <defs>
  <style type="text/css">
   <![CDATA[
    .fil0 {fill:#0F0F1E;fill-rule:nonzero}
    .fil2 {fill:#151524;fill-rule:nonzero}
    .fil3 {fill:#AEAEB3;fill-rule:nonzero}
    .fil1 {fill:white;fill-rule:nonzero}
    .fil8 {fill:url(#id0);fill-rule:nonzero}
    .fil12 {fill:url(#id1);fill-rule:nonzero}
    .fil4 {fill:url(#id2);fill-rule:nonzero}
    .fil9 {fill:url(#id3);fill-rule:nonzero}
    .fil6 {fill:url(#id4);fill-rule:nonzero}
    .fil10 {fill:url(#id5);fill-rule:nonzero}
    .fil11 {fill:url(#id6);fill-rule:nonzero}
    .fil5 {fill:url(#id7);fill-rule:nonzero}
    .fil7 {fill:url(#id8);fill-rule:nonzero}
   ]]>
  </style>
  <linearGradient id="id0" gradientUnits="userSpaceOnUse" x1="25959.33" y1="-262361.29" x2="122313.49" y2="-262361.29">
   <stop offset="0" style="stop-opacity:1; stop-color:#7A33A6"/>
   <stop offset="1" style="stop-opacity:1; stop-color:#4733A6"/>
  </linearGradient>
  <linearGradient id="id1" gradientUnits="userSpaceOnUse" xlink:href="#id0" x1="100868.04" y1="-156593.24" x2="120921.94" y2="-156593.24">
  </linearGradient>
  <linearGradient id="id2" gradientUnits="userSpaceOnUse" xlink:href="#id0" x1="252" y1="2496.22" x2="2663.98" y2="2496.22">
  </linearGradient>
  <linearGradient id="id3" gradientUnits="userSpaceOnUse" xlink:href="#id0" x1="15649.55" y1="-156593.24" x2="35703.49" y2="-156593.24">
  </linearGradient>
  <linearGradient id="id4" gradientUnits="userSpaceOnUse" xlink:href="#id0" x1="41067.59" y1="-212736.39" x2="137426.55" y2="-212736.39">
  </linearGradient>
  <linearGradient id="id5" gradientUnits="userSpaceOnUse" xlink:href="#id0" x1="44054.47" y1="-156593.24" x2="64108.55" y2="-156593.24">
  </linearGradient>
  <linearGradient id="id6" gradientUnits="userSpaceOnUse" xlink:href="#id0" x1="72463.45" y1="-156593.24" x2="92512.44" y2="-156593.24">
  </linearGradient>
  <linearGradient id="id7" gradientUnits="userSpaceOnUse" xlink:href="#id0" x1="13803.41" y1="-186539.97" x2="110158.52" y2="-186539.97">
  </linearGradient>
  <linearGradient id="id8" gradientUnits="userSpaceOnUse" xlink:href="#id0" x1="-1929.8" y1="-247231.28" x2="94425.17" y2="-247231.28">
  </linearGradient>
 </defs>
 <g id="Capa_x0020_1">
  <metadata id="CorelCorpID_0Corel-Layer"/>
  <path class="fil0" d="M-0 4659.86l0 -4131.86c0,-291.48 214.92,-528 479.99,-528l2312.62 0c265.2,0 479.99,236.28 479.99,528l0 4131.86 -3272.61 0z"/>
  <polygon class="fil1" points="477.24,432 295.2,432 350.52,487.44 338.28,499.68 261.84,423.36 338.28,346.92 350.52,359.28 295.2,414.6 477.24,414.6 "/>
  <path class="fil2" d="M2748.34 262.08l202.56 0c33.13,0 60,26.87 60,60l0 202.56c0,33.13 -26.87,60 -60,60l-202.56 0c-33.13,-0 -60,-26.87 -60,-60l0 -202.56c0,-33.13 26.87,-60 60,-60z"/>
  <path class="fil1" d="M363.12 1087.92c-2.33,-4.4 -5.98,-7.97 -10.44,-10.2 -4.7,-2.37 -9.91,-3.61 -15.18,-3.61 -0.26,0 -0.53,0 -0.78,0.01 -0.49,-0.02 -1,-0.04 -1.5,-0.04 -9.13,0 -17.85,3.8 -24.06,10.47 -6.22,7.2 -9.65,16.4 -9.65,25.92 0,0.68 0.02,1.37 0.05,2.05 -0.05,0.78 -0.07,1.58 -0.07,2.37 0,9.87 3.61,19.4 10.15,26.79 6.86,6.72 16.1,10.49 25.7,10.49 0.67,0 1.35,-0.02 2.02,-0.05 0.35,0.01 0.72,0.02 1.07,0.02 6.92,0 13.68,-2.15 19.32,-6.14 5.76,-4.52 9.96,-10.73 12,-17.76l-41.4 0 0 -24 72 0 0 30.48c-5.28,17.64 -17.86,32.19 -34.55,39.97 -9.15,4.27 -19.14,6.49 -29.24,6.49 -0.37,0 -0.76,-0.01 -1.12,-0.01 -0.57,0.01 -1.18,0.02 -1.76,0.02 -11.96,0 -23.72,-2.98 -34.24,-8.66 -10.05,-5.62 -18.38,-13.95 -24.01,-24.01 -5.76,-10.56 -8.77,-22.41 -8.77,-34.45 0,-0.51 0.01,-1.05 0.02,-1.55 -0,-0.46 -0.01,-0.94 -0.01,-1.41 0,-12.08 3.02,-23.97 8.78,-34.59 5.61,-10.06 13.94,-18.39 24,-24.01 10.56,-5.76 22.41,-8.77 34.45,-8.77 0.51,0 1.05,0.01 1.55,0.02 0.61,-0.01 1.24,-0.03 1.84,-0.03 13.86,0 27.42,4.2 38.85,12.02 11.08,7.72 18.94,19.26 22.07,32.4l-37.08 -0.24z"/>
  <path class="fil1" d="M425.4 1097.39c3.74,-7.89 9.66,-14.56 17.04,-19.2 6.99,-4.39 15.1,-6.72 23.36,-6.72 0.21,0 0.44,0 0.64,0 0.25,-0 0.53,-0.01 0.78,-0.01 6.64,0 13.21,1.56 19.13,4.57 5.35,2.76 9.87,6.91 13.08,12.01l-0 -14.64 33.12 0 0 107.04 -33.12 0 0 -15.12c-3.32,5.08 -7.92,9.22 -13.32,12.01 -5.89,3 -12.4,4.57 -19.02,4.57 -0.25,0 -0.53,-0 -0.78,-0 -0.17,-0 -0.36,0 -0.53,0 -8.31,0 -16.47,-2.38 -23.48,-6.84 -7.38,-4.69 -13.29,-11.4 -17.03,-19.32 -4.05,-8.7 -6.14,-18.19 -6.14,-27.78 0,-0.45 0.01,-0.93 0.02,-1.37 -0.01,-0.45 -0.02,-0.91 -0.02,-1.37 0,-9.62 2.14,-19.12 6.25,-27.8l-0 0zm67.32 9.72c-4.25,-4.52 -10.2,-7.08 -16.4,-7.08 -0.09,0 -0.18,0 -0.27,0 -0.08,0 -0.17,-0 -0.25,-0 -6.18,0 -12.09,2.57 -16.31,7.08 -4.42,4.84 -6.88,11.17 -6.88,17.73 0,0.49 0.02,0.98 0.04,1.47 -0.02,0.5 -0.04,1.01 -0.04,1.51 0,6.66 2.45,13.09 6.88,18.06 4.16,4.59 10.06,7.2 16.26,7.2 0.1,0 0.2,-0 0.3,-0 0.09,-0 0.18,0 0.27,0 6.21,0 12.15,-2.56 16.41,-7.08 4.35,-5.54 6.73,-12.39 6.73,-19.44 0,-7.05 -2.37,-13.9 -6.73,-19.44l-0 -0z"/>
  <path class="fil1" d="M580.55 1176.83c-6.76,-2.83 -12.71,-7.33 -17.27,-13.08 -3.89,-5.38 -6.22,-11.74 -6.72,-18.36l32.51 -0c0.27,3.63 2.17,6.94 5.17,9 2.98,1.96 6.46,3 10.03,3 0.1,0 0.2,0 0.29,0 0.31,0.02 0.63,0.03 0.95,0.03 3.01,0 5.97,-0.84 8.53,-2.43 2.09,-1.37 3.36,-3.71 3.36,-6.22 0,-0 0,-0.01 0,-0.02 0,-0.05 0,-0.1 0,-0.14 0,-3.03 -1.93,-5.73 -4.8,-6.7 -5.01,-2.07 -10.2,-3.73 -15.47,-4.92 -6.49,-1.46 -12.96,-3.38 -19.21,-5.64 -5.14,-2.01 -9.72,-5.28 -13.31,-9.48 -3.61,-4.49 -5.57,-10.08 -5.57,-15.83 0,-0.48 0.01,-0.97 0.04,-1.45 0.01,-0.1 0,-0.22 0,-0.34 0,-5.86 1.76,-11.61 5.04,-16.46 3.72,-5.38 8.93,-9.55 14.99,-12 6.98,-2.95 14.5,-4.47 22.08,-4.47 0.64,0 1.29,0.01 1.92,0.04 0.81,-0.05 1.63,-0.07 2.44,-0.07 10.62,0 20.95,3.53 29.35,10.02 7.83,6.68 12.65,16.25 13.33,26.52l-30.37 0c-0.31,-3.49 -2.05,-6.7 -4.79,-8.88 -2.93,-2.12 -6.45,-3.26 -10.06,-3.26 -0.29,0 -0.57,0.01 -0.85,0.02 -0.32,-0.02 -0.64,-0.03 -0.96,-0.03 -2.75,0 -5.46,0.76 -7.81,2.19 -1.95,1.34 -3.12,3.56 -3.12,5.94 0,0.06 0,0.13 0,0.19 0.03,3.09 2,5.82 4.92,6.84 4.89,2.09 10.01,3.66 15.23,4.68 6.57,1.64 13.11,3.66 19.44,6 5.08,2.08 9.57,5.38 13.08,9.6 3.81,4.74 5.9,10.67 5.9,16.76 0,0.33 -0.01,0.67 -0.02,1 0,0.09 0,0.18 0,0.26 0,5.93 -1.85,11.71 -5.28,16.55 -3.78,5.37 -9.04,9.54 -15.12,12.01 -7.02,2.78 -14.52,4.2 -22.07,4.2 -0.31,0 -0.66,-0.01 -0.97,-0.01 -0.16,0 -0.33,0 -0.49,0 -8.37,0 -16.67,-1.71 -24.35,-5.04l-0.01 -0z"/>
  <path class="fil1" d="M734.51 1152.23l0 27.84 -16.68 0c-0.83,0.05 -1.67,0.08 -2.5,0.08 -9.22,0 -18.17,-3.07 -25.45,-8.71 -6.5,-6.71 -10.13,-15.7 -10.13,-25.04 0,-1.17 0.06,-2.35 0.17,-3.52l-0 -42.61 -13.08 0 0 -26.88 13.08 0 0 -26.52 32.64 0 0 26.52 21.48 0 0 27.24 -21.48 0 0 42.96c-0.02,0.31 -0.04,0.62 -0.04,0.93 0,2.23 0.83,4.39 2.33,6.04 1.9,1.37 4.18,2.1 6.52,2.1 0.39,0 0.78,-0.02 1.16,-0.06l11.99 -0.36z"/>
  <path class="fil1" d="M778.91 1174.91c-8.32,-4.32 -15.21,-11.01 -19.79,-19.2 -4.73,-8.48 -7.22,-18.06 -7.22,-27.78 0,-0.45 0.01,-0.92 0.01,-1.37 -0,-0.49 -0.02,-1 -0.02,-1.5 0,-9.7 2.53,-19.24 7.34,-27.67 4.66,-8.2 11.58,-14.9 19.92,-19.32 8.46,-4.41 17.88,-6.73 27.43,-6.73 0.33,0 0.68,0.01 1.01,0.01 0.39,-0 0.79,-0.01 1.18,-0.01 9.49,0 18.86,2.32 27.26,6.74 8.58,4.29 15.72,11.01 20.52,19.32 4.79,8.92 7.31,18.91 7.31,29.04 0,10.13 -2.52,20.12 -7.32,29.04 -4.72,8.24 -11.73,14.95 -20.16,19.32 -8.53,4.42 -18.01,6.73 -27.61,6.73 -0.31,0 -0.64,-0.01 -0.95,-0.01 -0.61,0.02 -1.26,0.03 -1.88,0.03 -9.41,0 -18.7,-2.28 -27.04,-6.63l-0 -0zm44.4 -28.56c4.25,-5.72 6.54,-12.67 6.54,-19.8 0,-7.13 -2.29,-14.07 -6.54,-19.8 -3.94,-4.35 -9.54,-6.84 -15.41,-6.84 -0.15,0 -0.29,0 -0.44,0 -0.13,0 -0.27,-0 -0.4,-0 -5.89,0 -11.52,2.43 -15.56,6.72 -4.06,5.82 -6.25,12.76 -6.25,19.86 0,7.1 2.19,14.04 6.25,19.86 3.82,4.35 9.34,6.85 15.13,6.85 0.15,0 0.31,-0 0.46,-0 0.12,-0 0.25,0 0.38,0 5.99,0 11.72,-2.48 15.82,-6.84l-0 0z"/>
  <path class="fil1" d="M905.15 1176.83c-6.79,-2.76 -12.76,-7.28 -17.27,-13.08 -4.15,-5.28 -6.7,-11.67 -7.32,-18.35l32.39 -0c0.27,3.63 2.17,6.94 5.17,9 3.2,2.26 7.03,3.48 10.95,3.48 0.15,0 0.3,-0 0.44,-0 0.29,0.01 0.58,0.02 0.86,0.02 3.04,0 6.03,-0.84 8.62,-2.42 2.09,-1.37 3.36,-3.71 3.36,-6.22 0,-0 0,-0.01 0,-0.02 0,-0.05 0,-0.09 0,-0.14 0,-3.03 -1.93,-5.73 -4.8,-6.7 -5.04,-2.04 -10.3,-3.71 -15.6,-4.92 -6.48,-1.46 -12.95,-3.38 -19.2,-5.63 -5.09,-2.05 -9.62,-5.31 -13.19,-9.48 -3.6,-4.49 -5.56,-10.08 -5.56,-15.83 0,-0.48 0.01,-0.97 0.04,-1.45 0.01,-0.11 0,-0.23 0,-0.34 0,-5.86 1.76,-11.61 5.04,-16.46 3.69,-5.39 8.92,-9.57 14.99,-12 6.95,-2.95 14.46,-4.48 22.02,-4.48 0.66,0 1.33,0.01 1.98,0.04 0.81,-0.04 1.63,-0.06 2.44,-0.06 10.62,0 20.95,3.53 29.35,10.02 7.75,6.74 12.54,16.28 13.32,26.52l-30.6 0c-0.36,-3.51 -2.13,-6.72 -4.91,-8.88 -2.91,-2.11 -6.42,-3.25 -10.02,-3.25 -0.26,0 -0.53,0.01 -0.78,0.02 -0.32,-0.02 -0.64,-0.03 -0.97,-0.03 -2.78,0 -5.52,0.76 -7.91,2.19 -1.9,1.4 -3.03,3.63 -3.03,5.99 0,3.1 1.92,5.88 4.83,6.97 4.94,2.06 10.1,3.64 15.36,4.68 6.53,1.63 13.03,3.65 19.33,6 5.1,2.08 9.64,5.38 13.19,9.6 3.81,4.84 5.89,10.83 5.89,17 0,0.25 -0,0.51 -0.01,0.76 0,0.09 0,0.18 0,0.26 0,5.93 -1.85,11.71 -5.28,16.55 -3.85,5.34 -9.13,9.51 -15.23,12.01 -6.93,2.77 -14.36,4.2 -21.83,4.2 -0.36,0 -0.74,-0.01 -1.1,-0.01 -8.61,-0.05 -17.13,-1.94 -24.95,-5.52l-0.01 0z"/>
  <path class="fil1" d="M1045.55 1097.39c3.74,-7.89 9.67,-14.56 17.05,-19.2 6.99,-4.39 15.09,-6.72 23.35,-6.72 0.21,0 0.44,0 0.64,0 0.2,0 0.4,-0 0.6,-0 6.49,0 12.92,1.52 18.72,4.44 5.56,2.68 10.3,6.83 13.68,12l-0.01 -49.92 32.88 0 0 142.08 -32.88 0 0 -15.36c-3.19,5.11 -7.71,9.26 -13.08,12 -5.92,3 -12.49,4.57 -19.13,4.57 -0.26,0 -0.53,-0 -0.78,-0 -0.14,-0 -0.29,-0 -0.43,-0 -8.35,0 -16.53,-2.38 -23.58,-6.84 -7.39,-4.69 -13.3,-11.4 -17.03,-19.32 -4.11,-8.77 -6.25,-18.35 -6.25,-28.03 0,-0.37 0.01,-0.77 0.01,-1.13 0,-0.24 -0,-0.52 -0,-0.78 0,-9.61 2.14,-19.1 6.25,-27.78l-0.01 -0zm67.2 9.72c-4.31,-4.52 -10.3,-7.08 -16.55,-7.08 -6.25,0 -12.24,2.56 -16.56,7.08 -4.42,4.84 -6.88,11.17 -6.88,17.73 0,0.49 0.02,0.98 0.04,1.47 -0.03,0.5 -0.05,1.01 -0.05,1.51 0,6.66 2.45,13.09 6.88,18.06 4.3,4.54 10.3,7.13 16.56,7.13 6.26,0 12.25,-2.58 16.56,-7.13 4.42,-5.51 6.83,-12.37 6.83,-19.44 0,-7.07 -2.41,-13.93 -6.83,-19.44l-0.01 0.12z"/>
  <path class="fil1" d="M1282.43 1134.48l-74.28 0c0.13,5.7 2.4,11.15 6.37,15.24 3.71,3.4 8.57,5.28 13.61,5.28 0.1,0 0.21,-0 0.31,-0 0.43,0.03 0.85,0.05 1.27,0.05 6.92,0 13.17,-4.13 15.89,-10.49l34.91 -0c-1.76,7 -5.09,13.53 -9.72,19.08 -4.71,5.71 -10.72,10.25 -17.51,13.2 -7.14,3.17 -14.89,4.82 -22.7,4.82 -0.43,0 -0.88,-0.01 -1.3,-0.01 -0.39,0 -0.79,0.01 -1.18,0.01 -9.38,0 -18.63,-2.31 -26.9,-6.73 -8.1,-4.41 -14.79,-11.09 -19.2,-19.2 -4.49,-9.05 -6.84,-19.05 -6.84,-29.16 0,-10.11 2.35,-20.11 6.85,-29.15 4.28,-8.17 10.94,-14.87 19.08,-19.21 8.23,-4.41 17.44,-6.73 26.79,-6.73 0.46,0 0.95,0.01 1.41,0.02 0.34,-0.01 0.72,-0.02 1.07,-0.02 9.23,0 18.35,2.23 26.53,6.49 8.25,4.1 15.11,10.59 19.67,18.6 4.49,8.31 6.86,17.62 6.86,27.07 0,0.42 -0.01,0.84 -0.01,1.25 -0.14,3.19 -0.48,6.44 -0.96,9.6l-0.01 0zm-33 -18.24c0.02,-0.25 0.02,-0.51 0.02,-0.76 0,-4.86 -2.11,-9.49 -5.78,-12.68 -3.81,-3.26 -8.68,-5.05 -13.7,-5.05 -0.23,0 -0.47,0 -0.69,0.01 -0.24,-0 -0.48,-0.01 -0.72,-0.01 -4.83,0 -9.51,1.71 -13.2,4.81 -3.96,3.53 -6.49,8.4 -7.09,13.68l41.16 0z"/>
  <polygon class="fil1" points="1338.83,1037.99 1338.83,1180.07 1306.07,1180.07 1306.07,1037.99 "/>
  <polygon class="fil1" points="1567.55,1045.31 1567.55,1180.07 1534.67,1180.07 1534.67,1099.31 1504.55,1180.07 1478.03,1180.07 1447.79,1099.08 1447.79,1180.07 1414.91,1180.07 1414.91,1045.31 1453.67,1045.31 1491.47,1138.68 1528.55,1045.31 "/>
  <path class="fil1" d="M1697.39 1134.48l-74.4 0c0.21,5.7 2.53,11.13 6.48,15.24 3.64,3.39 8.44,5.28 13.42,5.28 0.17,0 0.34,-0 0.5,-0.01 0.41,0.04 0.82,0.05 1.23,0.05 6.9,0 13.13,-4.13 15.81,-10.49l35.04 -0c-1.76,7 -5.1,13.53 -9.73,19.08 -4.77,5.71 -10.82,10.23 -17.64,13.2 -7.1,3.18 -14.8,4.82 -22.58,4.82 -0.47,0 -0.95,-0.01 -1.42,-0.02 -0.42,0.01 -0.88,0.02 -1.32,0.02 -9.33,0 -18.54,-2.32 -26.75,-6.74 -8.15,-4.37 -14.84,-11.06 -19.2,-19.21 -4.53,-9.04 -6.9,-19.03 -6.9,-29.15 0,-10.12 2.37,-20.11 6.9,-29.16 4.33,-8.14 10.98,-14.83 19.08,-19.2 8.67,-4.34 18.25,-6.61 27.95,-6.61 9.7,0 19.29,2.27 27.96,6.6 7.96,4.25 14.56,10.72 18.96,18.6 4.42,8.35 6.73,17.67 6.73,27.14 0,0.39 -0.01,0.79 -0.01,1.18 0.05,1.15 0.07,2.36 0.07,3.53 0,1.94 -0.07,3.9 -0.19,5.83zm-33.12 -18.24c0.01,-0.25 0.01,-0.51 0.01,-0.76 0,-4.86 -2.11,-9.49 -5.78,-12.68 -4.02,-3.19 -9.02,-4.93 -14.16,-4.93 -5.14,0 -10.13,1.74 -14.15,4.93 -3.92,3.55 -6.4,8.42 -6.96,13.68l41.04 -0.24z"/>
  <path class="fil1" d="M1739.62 1176.83c-6.8,-2.76 -12.77,-7.28 -17.28,-13.08 -4.18,-5.4 -6.68,-11.91 -7.2,-18.72l32.52 0c0.26,3.63 2.16,6.94 5.16,9 3.16,2.26 6.95,3.48 10.84,3.48 0.15,0 0.3,-0 0.44,-0 0.31,0.02 0.63,0.03 0.94,0.03 3.06,0 6.05,-0.84 8.66,-2.43 2.07,-1.41 3.32,-3.74 3.36,-6.24 -0.01,-3.06 -1.93,-5.79 -4.8,-6.84 -5.05,-2.04 -10.3,-3.71 -15.61,-4.92 -6.48,-1.46 -12.95,-3.38 -19.2,-5.64 -5.13,-1.99 -9.68,-5.26 -13.2,-9.48 -3.67,-4.51 -5.67,-10.15 -5.67,-15.97 0,-0.44 0.01,-0.88 0.03,-1.31 0,-0.12 0,-0.26 0,-0.39 0,-5.87 1.81,-11.61 5.16,-16.41 3.64,-5.4 8.84,-9.58 14.88,-12 6.98,-2.95 14.5,-4.48 22.08,-4.48 0.64,0 1.29,0.01 1.92,0.04 0.81,-0.04 1.63,-0.06 2.44,-0.06 10.62,0 20.95,3.53 29.35,10.02 7.83,6.68 12.65,16.25 13.33,26.52l-30.24 0c-0.42,-3.49 -2.19,-6.68 -4.92,-8.88 -2.93,-2.12 -6.45,-3.26 -10.06,-3.26 -0.29,0 -0.57,0.01 -0.85,0.02 -0.32,-0.02 -0.64,-0.03 -0.96,-0.03 -2.75,0 -5.46,0.76 -7.81,2.19 -1.95,1.34 -3.12,3.56 -3.12,5.93 0,0.06 0,0.13 0,0.19 0.03,3.09 2,5.82 4.92,6.84 4.89,2.06 10.02,3.65 15.24,4.68 6.56,1.64 13.1,3.66 19.43,6 5.08,2.09 9.57,5.39 13.08,9.61 3.81,4.74 5.9,10.67 5.9,16.76 0,0.33 -0.01,0.67 -0.02,1 0,0.08 0,0.17 0,0.25 0,5.93 -1.85,11.71 -5.28,16.55 -3.78,5.37 -9.04,9.54 -15.12,12.01 -6.97,2.77 -14.4,4.2 -21.91,4.2 -0.33,0 -0.68,-0.01 -1,-0.01 -0.34,0 -0.73,0.01 -1.08,0.01 -8.39,0 -16.7,-1.77 -24.36,-5.17z"/>
  <path class="fil1" d="M333.24 3454.54c2.95,3.88 4.55,8.62 4.55,13.5 0,6.4 -2.75,12.5 -7.55,16.73 -5.5,4.16 -12.21,6.41 -19.1,6.41 -0.59,0 -1.19,-0.02 -1.77,-0.05l-39.97 0.01 0 -85.8 38.52 0c0.68,-0.05 1.37,-0.07 2.04,-0.07 6.65,0 13.13,2.13 18.49,6.07 4.66,4.12 7.33,10.05 7.33,16.27 0,4.49 -1.39,8.87 -3.97,12.53 -2.69,3.38 -6.39,5.82 -10.56,6.95 4.78,0.9 9.07,3.56 12.01,7.44l-0.01 0.01zm-42.96 -14.52l14.28 0c0.25,0 0.49,0.01 0.74,0.01 2.54,0 5.02,-0.81 7.07,-2.3 1.77,-1.48 2.79,-3.67 2.79,-5.97 0,-0.21 -0.01,-0.42 -0.02,-0.63 0.01,-0.21 0.02,-0.42 0.02,-0.63 0,-2.34 -1.02,-4.56 -2.78,-6.09 -2.08,-1.56 -4.62,-2.41 -7.22,-2.41 -0.2,0 -0.39,0 -0.58,0.01l-14.29 0.01 0 18zm24 31.8c1.85,-1.58 2.91,-3.88 2.91,-6.3 0,-0.18 -0.01,-0.37 -0.02,-0.55 0,-0.12 0,-0.24 0,-0.36 0,-2.56 -1.09,-5.01 -3.01,-6.71 -2.13,-1.72 -4.79,-2.67 -7.54,-2.67 -0.24,0 -0.5,0.01 -0.74,0.02l-15.6 0.01 0 18.96 15.36 0c0.24,0.01 0.47,0.01 0.7,0.01 2.68,0 5.3,-0.85 7.47,-2.42l0.47 0.01z"/>
  <path class="fil1" d="M383.64 3425.38c3.58,-2.13 7.67,-3.25 11.82,-3.25 0.06,0 0.12,0 0.19,0l0 22.2 -5.65 0c-0.53,-0.05 -1.07,-0.08 -1.61,-0.08 -3.74,0 -7.38,1.21 -10.38,3.43 -2.61,2.73 -4.08,6.36 -4.08,10.14 0,0.62 0.04,1.24 0.12,1.86l0 31.68 -20.53 0.01 0 -68.28 20.88 0 0 11.4c2.34,-3.72 5.51,-6.85 9.25,-9.13l-0.01 0.01z"/>
  <path class="fil1" d="M473.4 3461.97l-47.28 0c0.05,3.64 1.51,7.13 4.09,9.71 2.24,2.16 5.23,3.37 8.34,3.37 0.18,0 0.36,-0 0.54,-0.01 0.28,0.02 0.56,0.03 0.84,0.03 4.35,0 8.28,-2.62 9.96,-6.63l22.67 0c-1.16,4.4 -3.29,8.51 -6.24,11.99 -2.98,3.66 -6.82,6.54 -11.16,8.4 -4.61,2.06 -9.61,3.12 -14.66,3.12 -0.11,0 -0.23,0 -0.34,0 -0.25,0 -0.51,0.01 -0.76,0.01 -5.97,0 -11.86,-1.49 -17.12,-4.33 -5.05,-2.78 -9.22,-6.95 -12,-12 -2.93,-5.39 -4.46,-11.43 -4.46,-17.56 0,-0.34 0,-0.7 0.01,-1.04 -0,-0.29 -0.01,-0.59 -0.01,-0.88 0,-6.13 1.49,-12.17 4.33,-17.6 2.78,-5.05 6.95,-9.22 12.01,-11.99 5.56,-2.86 11.75,-4.36 18,-4.36 6.25,0 12.44,1.5 18,4.36 5.06,2.76 9.23,6.93 12,12 2.84,5.25 4.33,11.14 4.33,17.12 0,0.25 -0,0.51 -0.01,0.77 -0.25,1.85 -0.63,3.71 -1.08,5.52l-0 0zm-21 -12c0.01,-0.15 0.01,-0.29 0.01,-0.42 0,-3.12 -1.36,-6.08 -3.73,-8.11 -2.43,-2.02 -5.5,-3.12 -8.66,-3.12 -0.15,0 -0.31,0 -0.46,0.01 -0.15,-0 -0.3,-0.01 -0.45,-0.01 -3.07,0 -6.05,1.07 -8.43,3.01 -2.48,2.24 -4.06,5.32 -4.44,8.64l26.15 0.01z"/>
  <path class="fil1" d="M488.28 3438.46c2.44,-4.93 6.18,-9.08 10.81,-12.01 4.45,-2.82 9.62,-4.32 14.9,-4.32 0.11,0 0.23,0 0.34,0 0.22,-0.01 0.46,-0.01 0.68,-0.01 4.16,0 8.25,1.04 11.91,3.01 3.48,1.7 6.4,4.37 8.41,7.68l0 -9.72 21.23 0 0 68.28 -21.24 0 0 -9.72c-2.07,3.28 -5.03,5.94 -8.51,7.67 -3.66,1.97 -7.76,3.01 -11.91,3.01 -0.23,0 -0.47,-0 -0.69,-0.01 -0.08,0 -0.17,0 -0.25,0 -5.26,0 -10.42,-1.5 -14.86,-4.32 -4.59,-2.98 -8.33,-7.12 -10.8,-12 -2.61,-5.54 -3.97,-11.61 -3.97,-17.74 0,-0.29 0,-0.58 0.01,-0.86 -0.01,-0.47 -0.02,-0.95 -0.02,-1.43 0,-6.06 1.37,-12.07 3.99,-17.53l-0.01 0.01zm42.72 6.24c-2.75,-2.88 -6.57,-4.51 -10.55,-4.51 -3.99,0 -7.8,1.63 -10.56,4.5 -2.79,3.11 -4.34,7.13 -4.34,11.31 0,0.23 0,0.46 0.01,0.69 0,0.15 -0,0.32 -0,0.47 0,4.24 1.54,8.34 4.33,11.53 2.74,2.9 6.56,4.55 10.56,4.55 4,0 7.81,-1.65 10.56,-4.55 2.79,-3.49 4.32,-7.83 4.32,-12.3 0,-4.47 -1.52,-8.81 -4.32,-12.3l-0 0.61z"/>
  <polygon class="fil1" points="616.56,3491.14 595.8,3462.45 595.8,3491.14 575.03,3491.14 575.03,3400.66 595.92,3400.66 595.92,3450.69 616.56,3422.86 642.35,3422.86 614.03,3457.06 642.59,3491.14 "/>
  <path class="fil1" d="M654 3438.46c2.44,-4.93 6.18,-9.08 10.81,-12.01 4.5,-2.82 9.72,-4.32 15.03,-4.32 0.11,0 0.22,0 0.32,0 0.01,0 0.03,0 0.04,0 4.16,0 8.26,0.99 11.96,2.88 3.55,1.67 6.59,4.29 8.76,7.56l0 -31.68 20.87 0.01 0 90.48 -20.64 0 0 -9.84c-2.05,3.29 -4.95,5.98 -8.39,7.79 -3.66,1.97 -7.75,3 -11.9,3 -0.03,0 -0.07,0 -0.1,0 -0.25,0 -0.52,0.01 -0.78,0.01 -5.47,0 -10.84,-1.59 -15.42,-4.57 -4.59,-2.98 -8.33,-7.12 -10.8,-12 -2.61,-5.54 -3.97,-11.61 -3.97,-17.74 0,-0.29 0,-0.58 0.01,-0.86 0,-0.24 -0,-0.49 -0,-0.73 0,-6.24 1.45,-12.4 4.21,-17.99l-0.01 0.01zm42.84 6.24c-2.78,-2.88 -6.61,-4.51 -10.61,-4.51 -4,0 -7.84,1.63 -10.62,4.51 -2.79,3.1 -4.34,7.13 -4.34,11.31 0,0.23 0,0.46 0.01,0.69 0,0.15 -0,0.32 -0,0.47 0,4.24 1.54,8.34 4.33,11.53 2.76,2.91 6.6,4.56 10.62,4.56 4.01,0 7.86,-1.65 10.62,-4.56 2.79,-3.49 4.32,-7.83 4.32,-12.3 0,-4.47 -1.52,-8.81 -4.32,-12.3l-0.01 0.61z"/>
  <path class="fil1" d="M753.83 3487.78c-4.98,-2.87 -9.13,-7.02 -12,-12.01 -2.99,-5.44 -4.57,-11.56 -4.57,-17.77 0,-0.27 0,-0.56 0.01,-0.83 -0,-0.24 -0.01,-0.49 -0.01,-0.72 0,-6.22 1.62,-12.35 4.69,-17.76 3.01,-5.13 7.43,-9.3 12.73,-12.01 5.37,-2.83 11.36,-4.32 17.43,-4.32 0.19,0 0.38,0 0.56,0 0.19,0 0.38,0 0.57,0 6.11,0 12.14,1.49 17.55,4.32 5.27,2.74 9.67,6.9 12.72,12 3.12,5.68 4.75,12.06 4.75,18.54 0,6.48 -1.63,12.86 -4.73,18.54 -3.06,5.13 -7.52,9.3 -12.85,12 -5.57,2.81 -11.75,4.28 -18,4.28 -6.25,0 -12.43,-1.47 -18,-4.28l-0.85 0zm28.2 -18.24c2.75,-3.12 4.26,-7.13 4.26,-11.27 0,-0.44 -0.02,-0.89 -0.05,-1.34 0.01,-0.25 0.01,-0.52 0.01,-0.78 0,-4.1 -1.45,-8.08 -4.1,-11.22 -2.44,-2.82 -5.99,-4.44 -9.71,-4.44 -0.12,0 -0.24,0 -0.36,0 -0.12,-0 -0.25,-0 -0.37,-0 -3.71,0 -7.24,1.57 -9.72,4.32 -2.66,3.16 -4.13,7.16 -4.13,11.3 0,0.44 0.02,0.87 0.05,1.3 -0.03,0.43 -0.05,0.85 -0.05,1.28 0,4.12 1.42,8.12 4,11.32 2.41,2.83 5.95,4.45 9.66,4.45 0.1,0 0.2,0 0.3,-0 3.96,-0.04 7.71,-1.85 10.2,-4.92l-0 0z"/>
  <polygon class="fil1" points="920.15,3422.86 901.67,3491.14 878.63,3491.14 867.83,3446.86 856.56,3491.14 833.75,3491.14 815.27,3422.86 836.16,3422.86 845.76,3471.7 857.76,3422.86 879.35,3422.86 891.36,3470.85 900.83,3422.86 "/>
  <path class="fil1" d="M992.39 3429.94c4.69,5.45 7.26,12.4 7.26,19.59 0,0.59 -0.02,1.17 -0.05,1.76l0 39.84 -20.77 0.01 0 -37.08c0.02,-0.29 0.03,-0.58 0.03,-0.87 0,-3.6 -1.29,-7.09 -3.62,-9.82 -2.58,-2.39 -5.97,-3.72 -9.48,-3.72 -3.51,0 -6.9,1.33 -9.48,3.73 -2.34,2.73 -3.63,6.22 -3.63,9.82 0,0.29 0.01,0.58 0.02,0.86l0 37.08 -20.88 0.01 0 -68.28 20.76 0 0 9.12c2.2,-3.08 5.14,-5.55 8.53,-7.21 3.75,-1.74 7.84,-2.64 11.97,-2.64 0.01,0 0.02,0 0.04,0 0.51,-0.03 1.04,-0.05 1.56,-0.05 6.76,0 13.21,2.85 17.76,7.85l-0.01 0.01z"/>
  <path class="fil3" d="M304.56 2974.66c-1.38,2.55 -3.46,4.68 -6,6.11 -2.96,1.71 -6.3,2.67 -9.72,2.76l0 6.96 -3.96 0.01 0 -7.08c-4.43,-0.36 -8.64,-2.13 -11.99,-5.05 -3.16,-2.82 -5.03,-6.82 -5.16,-11.04l6.47 0.01c0.24,2.69 1.39,5.23 3.25,7.19 2.12,2.16 4.92,3.51 7.92,3.84l0 -24c-3.18,-0.85 -6.33,-1.95 -9.36,-3.24 -2.38,-1.06 -4.44,-2.71 -6,-4.8 -1.57,-2.39 -2.41,-5.19 -2.41,-8.05 0,-0.24 0,-0.47 0.02,-0.7 -0.02,-0.34 -0.04,-0.68 -0.04,-1.02 0,-4.17 1.76,-8.16 4.83,-10.98 3.57,-3.09 8.15,-4.8 12.88,-4.8 0.03,0 0.05,0 0.08,0l0 -7.32 3.95 0 0 7.92c4.45,0.11 8.71,1.82 12.01,4.79 2.88,2.58 4.71,6.12 5.16,9.96l-6.49 0.01c-0.39,-2.28 -1.48,-4.38 -3.11,-6.01 -1.94,-1.87 -4.42,-3.09 -7.08,-3.48l0 23.28c3.15,0.78 6.26,1.83 9.24,3.12 5.19,2.27 8.55,7.41 8.55,13.08 0,0.28 -0.01,0.56 -0.02,0.84 -0.32,2.78 -1.36,5.43 -3.01,7.68l-0 0.01zm-28.2 -30.12c2.54,1.95 5.44,3.37 8.53,4.2l0 -22.44c-3.06,0.01 -6.02,1.07 -8.4,3 -2,1.96 -3.13,4.65 -3.13,7.46 0,0.15 0,0.31 0.01,0.47 -0.02,0.24 -0.03,0.49 -0.03,0.74 0,2.5 1.06,4.89 2.91,6.58l0.11 0zm21.12 30.48c1.94,-2.2 3,-5.01 3.01,-7.93 0.01,-0.22 0.02,-0.44 0.02,-0.66 0,-2.59 -1.1,-5.06 -3.03,-6.78 -2.59,-1.96 -5.52,-3.43 -8.64,-4.32l0 23.28c3.19,-0.09 6.24,-1.37 8.52,-3.6l0.11 0.01z"/>
  <path class="fil3" d="M319.44 2968.06l0 -4.56 31.8 -42.84 7.2 0 0 42.12 9.36 0 0 5.28 -9.36 0 0 14.88 -5.88 0 0 -14.88 -33.12 0zm33.12 -40.68l-26.16 35.4 26.16 0 0 -35.4z"/>
  <path class="fil3" d="M382.91 2927.74c3.17,-5.19 8.8,-8.37 14.88,-8.37 0.56,0 1.13,0.03 1.69,0.08 0.6,-0.07 1.21,-0.1 1.82,-0.1 6.05,0 11.65,3.18 14.74,8.38 3.11,6.49 4.74,13.61 4.74,20.81 0,0.82 -0.02,1.66 -0.06,2.47 0.05,0.92 0.08,1.85 0.08,2.78 0,7.33 -1.62,14.59 -4.75,21.22 -3.93,5.18 -10.06,8.24 -16.57,8.24 -6.5,0 -12.64,-3.05 -16.56,-8.24 -3.13,-6.63 -4.76,-13.88 -4.76,-21.21 0,-0.93 0.03,-1.86 0.08,-2.78 -0.04,-0.81 -0.06,-1.65 -0.06,-2.47 0,-7.2 1.63,-14.31 4.75,-20.8l-0.01 0zm30.6 9.6c-0.52,-3.39 -2.07,-6.53 -4.43,-9.01 -2.34,-2.19 -5.41,-3.4 -8.61,-3.4 -0.33,0 -0.66,0.01 -0.99,0.04 -0.3,-0.02 -0.6,-0.03 -0.9,-0.03 -3.22,0 -6.33,1.22 -8.69,3.39 -2.31,2.51 -3.86,5.64 -4.44,9 -0.73,4.15 -1.09,8.38 -1.09,12.59 0,0.36 0.01,0.73 0.01,1.08 0,0.39 -0.01,0.82 -0.01,1.23 0,4.29 0.37,8.59 1.09,12.81 0.58,3.36 2.13,6.49 4.44,9 2.39,2.25 5.54,3.51 8.82,3.51 0.26,0 0.53,-0.01 0.78,-0.02 0.28,0.02 0.55,0.03 0.83,0.03 3.27,0 6.41,-1.26 8.77,-3.51 2.36,-2.48 3.91,-5.62 4.44,-9 0.81,-4.15 1.22,-8.37 1.22,-12.59 0,-0.48 -0.01,-0.98 -0.02,-1.45 0,-0.43 0.01,-0.88 0.01,-1.32 0,-4.15 -0.41,-8.3 -1.21,-12.36l-0.01 0z"/>
  <path class="fil3" d="M439.32 2927.74c3.1,-5.2 8.7,-8.39 14.75,-8.39 0.61,0 1.22,0.03 1.82,0.1 0.55,-0.05 1.12,-0.08 1.69,-0.08 6.07,0 11.71,3.17 14.87,8.36 3.12,6.49 4.74,13.6 4.74,20.8 0,0.82 -0.02,1.66 -0.06,2.47 0.05,0.92 0.08,1.85 0.08,2.78 0,7.33 -1.62,14.59 -4.75,21.22 -3.95,5.19 -10.1,8.24 -16.63,8.24 -6.52,0 -12.68,-3.05 -16.62,-8.24 -3.05,-6.68 -4.63,-13.95 -4.63,-21.29 0,-0.9 0.03,-1.81 0.07,-2.71 -0.03,-0.82 -0.05,-1.66 -0.05,-2.48 0,-7.2 1.63,-14.31 4.75,-20.8l-0.01 0zm30.6 9.6c-0.58,-3.37 -2.12,-6.5 -4.43,-9.01 -2.73,-2.19 -6.11,-3.37 -9.6,-3.37 -3.49,0 -6.88,1.19 -9.6,3.37 -2.31,2.51 -3.86,5.64 -4.44,9 -0.8,4.31 -1.2,8.71 -1.2,13.1 0,0.19 0,0.39 0,0.58 -0,0.23 -0,0.47 -0,0.7 0,4.47 0.41,8.94 1.2,13.34 0.59,3.36 2.13,6.49 4.44,9 2.7,2.25 6.1,3.47 9.61,3.47 3.51,0 6.9,-1.23 9.6,-3.47 2.31,-2.51 3.86,-5.64 4.44,-9 0.8,-4.39 1.21,-8.87 1.21,-13.34 0,-0.23 0,-0.47 0,-0.7 -0,-0.19 -0,-0.39 -0,-0.58 0,-4.39 -0.4,-8.79 -1.21,-13.11l0 0.01z"/>
  <path class="fil3" d="M490.19 2982.1c-0.77,-0.87 -1.19,-1.98 -1.19,-3.14 0,-0.04 0,-0.07 0,-0.11 -0.01,-0.13 -0.02,-0.25 -0.02,-0.38 0,-2.25 1.83,-4.08 4.08,-4.08 0.13,0 0.25,0 0.38,0.02 0.03,0 0.05,0 0.08,0 1.13,0 2.21,0.43 3.04,1.2 0.78,0.89 1.2,2.04 1.2,3.22 0,0 0,0.01 0,0.02 -0.04,1.18 -0.46,2.33 -1.2,3.24 -0.83,0.77 -1.91,1.2 -3.04,1.2 -0.03,0 -0.05,0 -0.08,0 -0.08,0 -0.16,0.01 -0.24,0.01 -1.12,0 -2.19,-0.44 -3,-1.21l-0 0z"/>
  <path class="fil3" d="M514.2 2927.74c3.1,-5.2 8.7,-8.39 14.75,-8.39 0.61,0 1.22,0.03 1.82,0.1 0.55,-0.05 1.12,-0.08 1.69,-0.08 6.07,0 11.71,3.17 14.87,8.36 3.12,6.49 4.74,13.6 4.74,20.8 0,0.82 -0.02,1.66 -0.06,2.47 0.05,0.92 0.08,1.85 0.08,2.78 0,7.33 -1.62,14.59 -4.75,21.22 -3.95,5.19 -10.1,8.24 -16.63,8.24 -6.52,0 -12.68,-3.05 -16.62,-8.24 -3.05,-6.68 -4.63,-13.95 -4.63,-21.29 0,-0.9 0.03,-1.81 0.07,-2.71 -0.03,-0.82 -0.05,-1.66 -0.05,-2.48 0,-7.2 1.63,-14.31 4.75,-20.8l-0.01 0zm30.6 9.6c-0.58,-3.37 -2.12,-6.5 -4.43,-9.01 -2.37,-2.18 -5.48,-3.39 -8.7,-3.39 -0.3,0 -0.6,0.01 -0.9,0.03 -0.33,-0.03 -0.66,-0.04 -0.99,-0.04 -3.2,0 -6.27,1.22 -8.61,3.4 -2.36,2.48 -3.91,5.62 -4.44,9 -0.8,4.06 -1.22,8.22 -1.22,12.36 0,0.44 0.01,0.88 0.01,1.31 -0,0.48 -0.01,0.98 -0.01,1.46 0,4.22 0.41,8.44 1.21,12.59 0.54,3.38 2.09,6.52 4.44,9 2.36,2.25 5.51,3.51 8.77,3.51 0.28,0 0.55,-0.01 0.83,-0.03 0.26,0.01 0.52,0.02 0.78,0.02 3.28,0 6.43,-1.25 8.81,-3.5 2.31,-2.51 3.86,-5.64 4.44,-9 0.72,-4.22 1.09,-8.53 1.09,-12.81 0,-0.41 -0.01,-0.83 -0.01,-1.23 -0.01,-4.59 -0.46,-9.18 -1.32,-13.67l0.23 0.01z"/>
  <path class="fil3" d="M570.59 2927.74c3.1,-5.2 8.7,-8.39 14.75,-8.39 0.61,0 1.22,0.03 1.82,0.1 0.56,-0.05 1.13,-0.08 1.69,-0.08 6.07,0 11.71,3.17 14.87,8.36 3.05,6.42 4.64,13.46 4.64,20.58 0,0.9 -0.03,1.81 -0.08,2.7 0.05,0.98 0.09,2 0.09,2.98 0,7.25 -1.59,14.44 -4.65,21.01 -3.94,5.19 -10.1,8.24 -16.62,8.24 -6.52,0 -12.68,-3.05 -16.62,-8.24 -3.05,-6.68 -4.63,-13.95 -4.63,-21.29 0,-0.9 0.03,-1.81 0.07,-2.71 -0.04,-0.82 -0.06,-1.66 -0.06,-2.48 0,-7.2 1.63,-14.31 4.75,-20.8l-0.01 0zm30.6 9.6c-0.62,-3.35 -2.16,-6.47 -4.43,-9.01 -2.37,-2.17 -5.47,-3.39 -8.69,-3.39 -0.3,0 -0.6,0.01 -0.9,0.03 -0.34,-0.03 -0.67,-0.04 -1,-0.04 -3.2,0 -6.27,1.22 -8.61,3.4 -2.36,2.48 -3.91,5.62 -4.44,9 -0.8,4.06 -1.21,8.22 -1.21,12.36 0,0.44 0.01,0.88 0.01,1.31 -0.01,0.48 -0.02,0.98 -0.02,1.46 0,4.22 0.41,8.44 1.21,12.59 0.54,3.38 2.09,6.52 4.44,9 2.36,2.25 5.51,3.51 8.77,3.51 0.28,0 0.55,-0.01 0.83,-0.03 0.26,0.01 0.52,0.02 0.78,0.02 3.28,0 6.43,-1.25 8.81,-3.5 2.28,-2.54 3.81,-5.66 4.44,-9 0.72,-4.22 1.09,-8.53 1.09,-12.81 0,-0.41 -0.01,-0.83 -0.01,-1.23 0,-0.34 0.01,-0.72 0.01,-1.08 0,-4.21 -0.37,-8.44 -1.08,-12.6l-0.01 0.01z"/>
  <path class="fil3" d="M871.67 2974.66c-1.38,2.55 -3.46,4.68 -6,6.11 -2.94,1.73 -6.3,2.69 -9.71,2.77l0 6.96 -3.85 0 0 -7.08c-4.42,-0.37 -8.63,-2.15 -12,-5.05 -3.15,-2.82 -5.02,-6.82 -5.16,-11.04l6.47 0.01c0.24,2.69 1.39,5.23 3.25,7.19 2.15,2.18 4.99,3.54 8.04,3.84l0 -24c-3.23,-0.83 -6.42,-1.92 -9.49,-3.24 -2.35,-1.04 -4.39,-2.7 -5.87,-4.8 -1.66,-2.33 -2.54,-5.12 -2.54,-7.98 0,-0.26 0.01,-0.52 0.02,-0.78 -0.02,-0.34 -0.04,-0.68 -0.04,-1.02 0,-4.17 1.76,-8.16 4.83,-10.98 3.57,-3.09 8.15,-4.8 12.88,-4.8 0.06,0 0.14,0 0.2,0l0 -7.32 3.84 0 0 7.92c4.44,0.11 8.7,1.82 12.01,4.79 2.88,2.58 4.71,6.12 5.16,9.96l-7.57 0.01c-0.39,-2.28 -1.48,-4.38 -3.11,-6.01 -1.94,-1.87 -4.41,-3.09 -7.08,-3.48l0 23.28c3.14,0.78 6.25,1.83 9.23,3.12 2.41,1.11 4.52,2.8 6.12,4.92 1.58,2.49 2.42,5.38 2.42,8.34 0,0.22 -0,0.44 -0.01,0.67 -0.03,2.68 -0.73,5.33 -2.05,7.68l-0 0zm-28.2 -30.12c2.55,1.98 5.51,3.42 8.64,4.19l0 -22.44c-0,0 -0.01,0 -0.01,0 -3.09,0 -6.1,1.06 -8.51,3 -2,1.96 -3.13,4.65 -3.13,7.46 0,0.15 0,0.31 0.01,0.47 -0.01,0.21 -0.02,0.43 -0.02,0.64 0,2.56 1.1,4.99 3.03,6.68l-0 0zm21.12 30.48c1.94,-2.06 3.01,-4.77 3.01,-7.58 0,-0.12 -0,-0.24 -0,-0.35 0.01,-0.21 0.02,-0.44 0.02,-0.65 0,-2.59 -1.1,-5.06 -3.03,-6.78 -2.59,-1.96 -5.52,-3.43 -8.64,-4.32l0 23.28c0.02,0 0.05,0 0.07,0 3.22,0 6.31,-1.3 8.57,-3.6l-0.01 0.01z"/>
  <polygon class="fil3" points="886.43,2925.82 886.43,2920.3 901.31,2920.3 901.31,2982.94 895.07,2982.94 895.07,2925.82 "/>
  <path class="fil3" d="M941.15 2956.54c5.16,-4.93 8.29,-11.62 8.76,-18.73 0.01,-0.21 0.01,-0.44 0.01,-0.66 0,-3.23 -1.06,-6.37 -3.02,-8.94 -2.26,-2.41 -5.42,-3.77 -8.73,-3.77 -0.37,0 -0.74,0.02 -1.11,0.05 -0.21,-0 -0.43,-0.01 -0.65,-0.01 -3.67,0 -7.18,1.53 -9.67,4.21 -2.53,3.12 -3.93,7.02 -3.96,11.04l-6.25 0.01c0.03,-5.62 2.18,-11.02 6,-15.13 4,-3.42 9.08,-5.3 14.35,-5.3 4.93,0 9.73,1.66 13.61,4.69 3.39,3.3 5.31,7.83 5.31,12.56 0,0.33 -0.01,0.67 -0.03,1 -0.31,7.64 -3.43,14.91 -8.76,20.4 -6.49,7.17 -13.76,13.67 -21.6,19.31l32.27 0.01 0 5.16 -41.16 0 0 -4.32c8.79,-6.47 17.06,-13.71 24.6,-21.6z"/>
  <path class="fil3" d="M974.63 2927.74c3.95,-5.2 10.1,-8.25 16.62,-8.25 6.52,0 12.68,3.05 16.62,8.24 3.03,6.53 4.62,13.66 4.62,20.87 0,0.8 -0.02,1.62 -0.06,2.41 0.05,0.9 0.07,1.81 0.07,2.71 0,7.34 -1.58,14.61 -4.63,21.29 -3.95,5.19 -10.1,8.24 -16.62,8.24 -6.52,0 -12.68,-3.05 -16.62,-8.24 -3,-7.46 -4.56,-15.47 -4.56,-23.52 0,-8.05 1.56,-16.06 4.57,-23.52l-0.01 -0.23zm30.72 9.6c-0.62,-3.38 -2.2,-6.51 -4.55,-9.01 -2.71,-2.17 -6.07,-3.36 -9.54,-3.36 -3.47,0 -6.83,1.18 -9.54,3.36 -2.35,2.49 -3.94,5.62 -4.56,9 -0.73,4.15 -1.09,8.38 -1.09,12.59 0,0.36 0.01,0.73 0.01,1.08 0,0.39 -0.01,0.82 -0.01,1.23 0,4.29 0.37,8.59 1.09,12.81 0.62,3.37 2.21,6.5 4.56,9 2.66,2.25 6.05,3.5 9.54,3.5 3.49,0 6.88,-1.24 9.54,-3.5 2.35,-2.49 3.94,-5.62 4.56,-9 0.72,-4.22 1.09,-8.53 1.09,-12.81 0,-0.41 -0.01,-0.83 -0.01,-1.23 0,-0.34 0.01,-0.72 0.01,-1.08 0,-4.21 -0.37,-8.44 -1.08,-12.6l-0.01 0.01z"/>
  <path class="fil3" d="M1031.03 2927.74c3.95,-5.2 10.1,-8.25 16.63,-8.25 6.52,0 12.68,3.05 16.62,8.24 3.03,6.53 4.62,13.66 4.62,20.87 0,0.8 -0.02,1.62 -0.06,2.41 0.05,0.9 0.07,1.81 0.07,2.71 0,7.34 -1.58,14.61 -4.63,21.29 -3.19,5.2 -8.85,8.37 -14.94,8.37 -0.58,0 -1.17,-0.03 -1.74,-0.09 -0.6,0.06 -1.21,0.1 -1.81,0.1 -6.05,0 -11.65,-3.18 -14.74,-8.38 -3.06,-6.57 -4.65,-13.76 -4.65,-21.01 0,-0.99 0.04,-2 0.09,-2.99 -0.05,-0.88 -0.07,-1.8 -0.07,-2.69 0,-7.12 1.59,-14.16 4.64,-20.58l-0.01 0.01zm30.6 9.6c-0.53,-3.39 -2.08,-6.53 -4.44,-9.01 -2.34,-2.19 -5.41,-3.4 -8.61,-3.4 -0.33,0 -0.66,0.01 -0.99,0.04 -0.3,-0.02 -0.6,-0.03 -0.9,-0.03 -3.22,0 -6.33,1.22 -8.69,3.39 -2.31,2.51 -3.86,5.64 -4.44,9 -0.72,4.15 -1.09,8.38 -1.09,12.59 0,0.36 0.01,0.73 0.01,1.08 -0,0.39 -0.01,0.82 -0.01,1.23 0,4.29 0.37,8.59 1.09,12.81 0.58,3.36 2.13,6.49 4.44,9 2.39,2.25 5.54,3.51 8.82,3.51 0.26,0 0.53,-0.01 0.78,-0.02 0.27,0.02 0.55,0.03 0.83,0.03 3.27,0 6.41,-1.26 8.77,-3.51 2.36,-2.48 3.91,-5.62 4.44,-9 0.81,-4.15 1.22,-8.37 1.22,-12.59 0,-0.48 -0.01,-0.98 -0.02,-1.45 0.01,-0.43 0.02,-0.88 0.02,-1.32 0,-4.15 -0.41,-8.3 -1.21,-12.36l-0.01 0z"/>
  <path class="fil3" d="M1081.91 2982.1c-0.77,-0.87 -1.19,-1.98 -1.19,-3.14 0,-0.04 0,-0.07 0,-0.11 -0.01,-0.13 -0.02,-0.25 -0.02,-0.38 0,-2.25 1.83,-4.08 4.08,-4.08 0.13,0 0.25,0 0.38,0.02 0.06,0 0.12,0 0.18,0 1.1,0 2.16,0.43 2.94,1.2 0.78,0.81 1.21,1.88 1.21,3 0,0.08 -0,0.16 -0.01,0.24 0,0.04 0,0.07 0,0.11 0,1.16 -0.43,2.27 -1.2,3.13 -0.78,0.77 -1.84,1.2 -2.94,1.2 -0.06,0 -0.12,0 -0.18,-0 -0.08,0.01 -0.16,0.01 -0.24,0.01 -1.12,0 -2.19,-0.44 -3,-1.21l-0 0z"/>
  <path class="fil3" d="M1105.91 2927.74c3.95,-5.2 10.1,-8.25 16.63,-8.25 6.52,0 12.68,3.05 16.62,8.24 3.03,6.53 4.62,13.66 4.62,20.87 0,0.8 -0.02,1.62 -0.06,2.41 0.05,0.9 0.07,1.81 0.07,2.71 0,7.34 -1.58,14.61 -4.63,21.29 -3.19,5.2 -8.85,8.37 -14.94,8.37 -0.58,0 -1.17,-0.03 -1.74,-0.09 -0.6,0.06 -1.21,0.1 -1.81,0.1 -6.05,0 -11.65,-3.18 -14.74,-8.38 -3.06,-6.57 -4.65,-13.76 -4.65,-21.01 0,-0.99 0.04,-2 0.09,-2.99 -0.05,-0.88 -0.07,-1.8 -0.07,-2.69 0,-7.12 1.59,-14.16 4.64,-20.58l-0.01 0.01zm30.6 9.6c-0.53,-3.39 -2.08,-6.53 -4.44,-9.01 -2.34,-2.19 -5.41,-3.4 -8.61,-3.4 -0.33,0 -0.66,0.01 -0.99,0.04 -0.3,-0.02 -0.6,-0.03 -0.9,-0.03 -3.22,0 -6.33,1.22 -8.69,3.39 -2.27,2.54 -3.81,5.66 -4.44,9 -0.72,4.15 -1.09,8.38 -1.09,12.59 0,0.36 0.01,0.73 0.01,1.08 -0,0.39 -0.01,0.82 -0.01,1.23 0,4.29 0.37,8.59 1.09,12.81 0.63,3.34 2.17,6.46 4.44,9 2.39,2.25 5.54,3.5 8.82,3.5 0.26,0 0.53,-0.01 0.78,-0.02 0.27,0.02 0.55,0.03 0.83,0.03 3.27,0 6.41,-1.26 8.77,-3.51 2.36,-2.48 3.91,-5.62 4.44,-9 0.81,-4.15 1.22,-8.37 1.22,-12.59 0,-0.48 -0.01,-0.98 -0.02,-1.45 0.01,-0.43 0.02,-0.88 0.02,-1.32 0,-4.15 -0.41,-8.3 -1.21,-12.36l-0.01 0z"/>
  <path class="fil3" d="M1162.31 2927.74c3.17,-5.19 8.8,-8.37 14.88,-8.37 0.56,0 1.13,0.03 1.69,0.08 0.6,-0.07 1.21,-0.1 1.82,-0.1 6.05,0 11.65,3.18 14.74,8.38 3.11,6.49 4.74,13.61 4.74,20.81 0,0.82 -0.02,1.66 -0.06,2.47 0.05,0.92 0.08,1.85 0.08,2.78 0,7.33 -1.62,14.59 -4.75,21.22 -3.9,5.23 -10.05,8.32 -16.57,8.32 -6.52,0 -12.67,-3.09 -16.56,-8.32 -3.14,-6.63 -4.76,-13.88 -4.76,-21.22 0,-0.93 0.03,-1.86 0.08,-2.78 -0.04,-0.81 -0.06,-1.65 -0.06,-2.47 0,-7.2 1.63,-14.31 4.75,-20.8l-0.01 0zm30.6 9.6c-0.52,-3.39 -2.07,-6.53 -4.43,-9.01 -2.34,-2.19 -5.41,-3.4 -8.61,-3.4 -0.33,0 -0.66,0.01 -0.99,0.04 -0.3,-0.02 -0.61,-0.03 -0.91,-0.03 -3.22,0 -6.33,1.22 -8.69,3.39 -2.31,2.51 -3.86,5.64 -4.44,9 -0.73,4.15 -1.09,8.38 -1.09,12.59 0,0.36 0.01,0.73 0.01,1.08 0,0.39 -0.01,0.82 -0.01,1.23 0,4.29 0.37,8.59 1.09,12.81 0.58,3.36 2.13,6.49 4.44,9 2.39,2.25 5.54,3.51 8.82,3.51 0.26,0 0.53,-0.01 0.78,-0.02 0.28,0.02 0.55,0.03 0.83,0.03 3.27,0 6.41,-1.26 8.77,-3.51 2.36,-2.48 3.91,-5.62 4.44,-9 0.81,-4.15 1.22,-8.37 1.22,-12.59 0,-0.48 -0.01,-0.98 -0.02,-1.45 -0.02,-4.59 -0.55,-9.2 -1.56,-13.68l0.35 0.01z"/>
  <path class="fil3" d="M1438.91 2974.66c-1.38,2.55 -3.46,4.68 -6,6.11 -2.96,1.71 -6.3,2.67 -9.72,2.76l0 6.96 -3.85 0.01 0 -7.08c-4.64,-0.23 -9.08,-2 -12.59,-5.05 -3.15,-2.82 -5.02,-6.82 -5.16,-11.04l6.95 0.01c0.24,2.69 1.39,5.23 3.25,7.19 2.15,2.18 4.99,3.54 8.04,3.84l0 -24c-3.23,-0.83 -6.42,-1.92 -9.49,-3.24 -2.37,-1.07 -4.44,-2.72 -6,-4.8 -1.57,-2.39 -2.42,-5.19 -2.42,-8.05 0,-0.24 0,-0.47 0.02,-0.7 -0.02,-0.34 -0.04,-0.68 -0.04,-1.02 0,-4.17 1.76,-8.16 4.83,-10.98 3.57,-3.09 8.15,-4.8 12.88,-4.8 0.06,0 0.14,0 0.2,0l0 -7.32 3.84 0 0 7.92c4.44,0.11 8.7,1.82 12.01,4.79 2.88,2.58 4.72,6.12 5.17,9.96l-6.49 0.01c-0.39,-2.28 -1.48,-4.38 -3.11,-6.01 -1.94,-1.87 -4.41,-3.09 -7.08,-3.48l0 23.28c3.15,0.78 6.26,1.83 9.24,3.12 5.19,2.27 8.55,7.41 8.55,13.08 0,0.28 -0.01,0.56 -0.02,0.84 -0.32,2.78 -1.36,5.43 -3.01,7.68l-0 0.01zm-28.2 -30.12c2.56,1.98 5.51,3.42 8.65,4.19l0 -22.44c-0,0 -0.01,0 -0.01,0 -3.09,0 -6.1,1.06 -8.51,3 -2,1.96 -3.13,4.65 -3.13,7.46 0,0.15 0,0.31 0.01,0.47 -0.01,0.21 -0.02,0.43 -0.02,0.64 0,2.56 1.1,4.99 3.03,6.68l-0.01 0zm21.12 30.48c1.94,-2.2 3,-5.01 3.01,-7.93 0.01,-0.22 0.02,-0.44 0.02,-0.66 0,-2.59 -1.1,-5.06 -3.03,-6.78 -2.59,-1.96 -5.52,-3.43 -8.64,-4.32l0 23.28c3.24,-0.06 6.33,-1.35 8.65,-3.6l-0.01 0.01z"/>
  <path class="fil3" d="M1479.47 2924.26c-0.25,-0.02 -0.52,-0.03 -0.78,-0.03 -4.88,0 -9.43,2.5 -12.06,6.62 -2.74,5.52 -4.17,11.61 -4.17,17.77 0,1.36 0.07,2.73 0.21,4.07 1.13,-3.5 3.53,-6.46 6.72,-8.28 3.23,-1.97 6.94,-3.01 10.73,-3.01 0.18,0 0.37,0 0.55,0.01 0.34,-0.02 0.7,-0.03 1.05,-0.03 5.07,0 9.92,2.05 13.47,5.67 3.5,3.91 5.44,8.98 5.44,14.24 0,0.41 -0.01,0.83 -0.04,1.24 -0,0.02 -0,0.05 -0,0.07 0,3.58 -0.78,7.12 -2.28,10.37 -1.46,3.11 -3.86,5.71 -6.83,7.44 -3.27,1.82 -6.94,2.78 -10.68,2.78 -0.24,0 -0.49,-0 -0.72,-0.01 -0.71,0.07 -1.42,0.11 -2.13,0.11 -6.32,0 -12.23,-3.15 -15.75,-8.4 -3.31,-6.43 -5.03,-13.57 -5.03,-20.79 0,-1.07 0.04,-2.15 0.11,-3.2 0,-21.48 7.32,-32.28 22.2,-32.28 0.33,-0.02 0.66,-0.03 0.99,-0.03 4.46,0 8.76,1.63 12.09,4.59 3.28,3.19 5.32,7.45 5.76,12l-5.76 0.01c-0.53,-6.21 -5.73,-10.98 -11.95,-10.98 -0.38,0 -0.75,0.02 -1.12,0.05l-0 0.01zm-7.68 24c-2.44,1.05 -4.54,2.8 -6,5.03 -1.56,2.34 -2.4,5.11 -2.4,7.93 0,0.11 0,0.24 0,0.35 -0,0.24 -0.01,0.49 -0.01,0.73 0,4.14 1.5,8.15 4.21,11.27 2.98,3.01 7.03,4.7 11.26,4.7 0.24,0 0.5,-0.01 0.74,-0.02 0.23,0 0.46,0.01 0.69,0.01 3.77,0 7.4,-1.47 10.1,-4.1 2.56,-2.84 3.98,-6.53 3.98,-10.36 0,-0.26 -0.01,-0.54 -0.02,-0.8 0.03,-0.36 0.04,-0.72 0.04,-1.08 0,-4 -1.42,-7.87 -4,-10.92 -2.67,-2.78 -6.35,-4.35 -10.21,-4.35 -0.31,0 -0.63,0.01 -0.95,0.03 -2.56,0.01 -5.09,0.54 -7.44,1.56l-0.01 0z"/>
  <path class="fil3" d="M1518.83 2927.74c3.09,-5.2 8.7,-8.39 14.74,-8.39 0.61,0 1.22,0.03 1.82,0.1 0.56,-0.05 1.13,-0.08 1.69,-0.08 6.07,0 11.71,3.17 14.87,8.36 3.05,6.42 4.64,13.46 4.64,20.58 0,0.9 -0.03,1.81 -0.08,2.7 0.05,0.98 0.09,2 0.09,2.98 0,7.25 -1.59,14.44 -4.65,21.01 -3.95,5.19 -10.1,8.24 -16.62,8.24 -6.52,0 -12.68,-3.05 -16.62,-8.24 -3.05,-6.68 -4.63,-13.95 -4.63,-21.29 0,-0.9 0.03,-1.81 0.07,-2.71 -0.03,-0.82 -0.05,-1.66 -0.05,-2.48 0,-7.2 1.63,-14.31 4.75,-20.8l-0.01 0zm30.6 9.6c-0.58,-3.37 -2.13,-6.5 -4.44,-9.01 -2.37,-2.18 -5.48,-3.39 -8.7,-3.39 -0.3,0 -0.6,0.01 -0.9,0.03 -0.33,-0.03 -0.66,-0.04 -0.99,-0.04 -3.2,0 -6.27,1.22 -8.61,3.4 -2.36,2.48 -3.91,5.62 -4.44,9 -0.8,4.06 -1.22,8.22 -1.22,12.36 0,0.44 0.01,0.88 0.01,1.31 -0,0.48 -0.01,0.98 -0.01,1.46 0,4.22 0.41,8.44 1.21,12.59 0.54,3.38 2.09,6.52 4.44,9 2.36,2.25 5.51,3.51 8.77,3.51 0.28,0 0.55,-0.01 0.83,-0.03 0.26,0.01 0.52,0.02 0.78,0.02 3.28,0 6.43,-1.25 8.81,-3.5 2.31,-2.51 3.86,-5.64 4.44,-9 0.72,-4.22 1.09,-8.53 1.09,-12.81 0,-0.41 -0.01,-0.83 -0.01,-1.23 0,-0.34 0.01,-0.72 0.01,-1.08 0,-4.21 -0.37,-8.44 -1.08,-12.6l-0.01 0.01z"/>
  <path class="fil3" d="M1575.11 2927.74c3.95,-5.2 10.1,-8.25 16.62,-8.25 6.52,0 12.68,3.05 16.62,8.24 3.03,6.53 4.62,13.66 4.62,20.87 0,0.8 -0.02,1.62 -0.06,2.41 0.05,0.9 0.07,1.81 0.07,2.71 0,7.34 -1.58,14.61 -4.63,21.29 -3.95,5.19 -10.1,8.24 -16.62,8.24 -6.52,0 -12.68,-3.05 -16.62,-8.24 -3.05,-6.68 -4.63,-13.95 -4.63,-21.29 0,-0.9 0.03,-1.81 0.07,-2.71 -0.03,-0.8 -0.05,-1.61 -0.05,-2.42 0,-7.21 1.58,-14.34 4.62,-20.87l0 0.01zm30.72 9.6c-0.63,-3.35 -2.16,-6.47 -4.44,-9.01 -2.39,-2.18 -5.51,-3.39 -8.74,-3.39 -0.29,0 -0.58,0.01 -0.86,0.03 -0.33,-0.02 -0.66,-0.04 -0.99,-0.04 -3.2,0 -6.27,1.22 -8.61,3.4 -2.36,2.48 -3.91,5.62 -4.44,9 -0.8,4.06 -1.21,8.22 -1.21,12.36 0,0.44 0.01,0.88 0.01,1.31 -0,0.48 -0.01,0.98 -0.01,1.46 0,4.22 0.41,8.44 1.21,12.59 0.53,3.38 2.08,6.52 4.44,9 2.36,2.25 5.51,3.51 8.77,3.51 0.28,0 0.55,-0.01 0.83,-0.03 0.23,0.01 0.47,0.02 0.7,0.02 3.3,0 6.49,-1.25 8.9,-3.5 2.27,-2.54 3.81,-5.66 4.44,-9 0.72,-4.22 1.09,-8.53 1.09,-12.81 0,-0.41 -0.01,-0.83 -0.01,-1.23 0,-0.34 0.01,-0.72 0.01,-1.08 0,-4.21 -0.37,-8.44 -1.08,-12.6l-0.01 0.01z"/>
  <path class="fil3" d="M1626.11 2982.1c-0.83,-0.88 -1.3,-2.04 -1.32,-3.25 0,-0.03 0,-0.05 0,-0.08 0,-1.19 0.48,-2.33 1.32,-3.16 0.86,-0.77 1.97,-1.19 3.12,-1.19 1.15,0 2.26,0.43 3.12,1.19 0.84,0.83 1.32,1.97 1.32,3.16 0,0.03 0,0.05 0,0.08 -0.02,1.21 -0.49,2.36 -1.32,3.24 -0.86,0.77 -1.97,1.19 -3.12,1.19 -1.15,0 -2.26,-0.43 -3.12,-1.19l0 0.01z"/>
  <path class="fil3" d="M1649.99 2927.74c3.94,-5.2 10.1,-8.25 16.62,-8.25 6.52,0 12.68,3.05 16.62,8.24 3.04,6.42 4.63,13.47 4.63,20.58 0,0.9 -0.03,1.81 -0.08,2.7 0.05,0.98 0.09,2 0.09,2.98 0,7.25 -1.59,14.44 -4.65,21.01 -3.94,5.19 -10.1,8.24 -16.62,8.24 -6.52,0 -12.68,-3.05 -16.62,-8.24 -3.05,-6.68 -4.63,-13.95 -4.63,-21.29 0,-0.9 0.03,-1.81 0.07,-2.71 -0.03,-0.8 -0.05,-1.61 -0.05,-2.42 0,-7.21 1.58,-14.34 4.62,-20.87l0 0.01zm30.72 9.6c-0.63,-3.35 -2.17,-6.47 -4.44,-9.01 -2.39,-2.18 -5.51,-3.39 -8.74,-3.39 -0.29,0 -0.58,0.01 -0.86,0.03 -0.33,-0.02 -0.66,-0.04 -0.99,-0.04 -3.2,0 -6.27,1.22 -8.61,3.4 -2.36,2.48 -3.91,5.62 -4.44,9 -0.8,4.06 -1.21,8.22 -1.21,12.36 0,0.44 0.01,0.88 0.01,1.31 -0,0.48 -0.01,0.98 -0.01,1.46 0,4.22 0.41,8.44 1.21,12.59 0.53,3.38 2.08,6.52 4.44,9 2.36,2.25 5.51,3.51 8.77,3.51 0.28,0 0.55,-0.01 0.83,-0.03 0.23,0.01 0.47,0.02 0.7,0.02 3.3,0 6.49,-1.25 8.9,-3.5 2.27,-2.54 3.81,-5.66 4.44,-9 0.72,-4.22 1.09,-8.53 1.09,-12.81 0,-0.41 -0.01,-0.83 -0.01,-1.23 0,-0.34 0.01,-0.72 0.01,-1.08 0,-4.21 -0.37,-8.44 -1.08,-12.6l-0 0.01z"/>
  <path class="fil3" d="M1706.38 2927.74c3.94,-5.2 10.1,-8.25 16.62,-8.25 6.52,0 12.68,3.05 16.62,8.24 3.03,6.53 4.62,13.66 4.62,20.87 0,0.8 -0.02,1.62 -0.06,2.41 0.05,0.9 0.07,1.81 0.07,2.71 0,7.34 -1.58,14.61 -4.63,21.29 -3.18,5.2 -8.84,8.37 -14.94,8.37 -0.58,0 -1.17,-0.03 -1.74,-0.09 -0.58,0.05 -1.17,0.09 -1.76,0.09 -6.06,0 -11.68,-3.17 -14.8,-8.37 -3,-7.46 -4.56,-15.47 -4.56,-23.52 0,-8.05 1.56,-16.06 4.57,-23.52l-0 -0.23zm30.72 9.6c-0.63,-3.38 -2.21,-6.51 -4.56,-9.01 -2.34,-2.19 -5.41,-3.4 -8.61,-3.4 -0.33,0 -0.66,0.01 -0.99,0.04 -0.3,-0.02 -0.6,-0.03 -0.9,-0.03 -3.22,0 -6.33,1.22 -8.69,3.39 -2.28,2.54 -3.81,5.66 -4.44,9 -0.72,4.15 -1.09,8.38 -1.09,12.59 0,0.36 0.01,0.73 0.01,1.08 0,0.39 -0.01,0.82 -0.01,1.23 0,4.29 0.37,8.59 1.09,12.81 0.63,3.34 2.16,6.46 4.44,9 2.39,2.25 5.54,3.5 8.82,3.5 0.26,0 0.53,-0.01 0.78,-0.02 0.28,0.02 0.55,0.03 0.83,0.03 3.27,0 6.41,-1.26 8.77,-3.51 2.35,-2.5 3.94,-5.63 4.56,-9 0.72,-4.22 1.09,-8.53 1.09,-12.81 0,-0.41 -0.01,-0.83 -0.01,-1.23 0,-0.34 0.01,-0.72 0.01,-1.08 0,-4.21 -0.37,-8.44 -1.08,-12.6l-0 0.01z"/>
  <path class="fil3" d="M2006.14 2974.66c-1.39,2.55 -3.47,4.68 -6,6.11 -2.94,1.73 -6.3,2.69 -9.71,2.77l0 6.96 -3.84 0 0 -7.08c-4.43,-0.37 -8.64,-2.15 -12,-5.05 -3.16,-2.82 -5.03,-6.82 -5.16,-11.04l6.6 0.01c0.2,2.67 1.3,5.21 3.12,7.19 2.15,2.18 4.99,3.54 8.04,3.84l0 -24c-3.23,-0.83 -6.42,-1.92 -9.49,-3.24 -2.35,-1.04 -4.39,-2.7 -5.87,-4.8 -1.66,-2.33 -2.54,-5.12 -2.54,-7.98 0,-0.26 0.01,-0.52 0.02,-0.78 -0.01,-0.27 -0.02,-0.55 -0.02,-0.83 0,-4.23 1.75,-8.28 4.83,-11.18 3.57,-3.09 8.15,-4.8 12.88,-4.8 0.06,0 0.14,0 0.2,0l0 -7.32 3.85 0 0 7.92c4.44,0.11 8.69,1.82 12,4.79 2.92,2.54 4.77,6.11 5.16,9.96l-6.36 0c-0.48,-2.28 -1.61,-4.36 -3.24,-6.01 -1.94,-1.87 -4.41,-3.09 -7.08,-3.48l0 23.28c3.15,0.78 6.26,1.83 9.24,3.12 2.41,1.11 4.52,2.8 6.12,4.92 1.57,2.49 2.41,5.38 2.41,8.34 0,0.22 -0,0.44 -0.01,0.67 -0.35,2.78 -1.43,5.43 -3.12,7.67l0 0.01zm-28.2 -30.12c2.56,1.96 5.5,3.39 8.64,4.2l0 -22.44c-3.09,0.01 -6.1,1.07 -8.52,3 -2,1.96 -3.13,4.65 -3.13,7.46 0,0.15 0,0.31 0.01,0.47 -0.01,0.21 -0.02,0.43 -0.02,0.64 0,2.56 1.1,4.99 3.03,6.68l0 0zm21.12 30.48c1.93,-2.06 3,-4.77 3,-7.58 0,-0.12 -0,-0.24 -0,-0.35 0.02,-0.21 0.03,-0.44 0.03,-0.65 0,-2.59 -1.1,-5.06 -3.03,-6.78 -2.59,-1.96 -5.52,-3.43 -8.64,-4.32l0 23.28c0.02,0 0.05,0 0.07,0 3.22,0 6.31,-1.3 8.57,-3.6l0 0.01z"/>
  <polygon class="fil3" points="2020.54,2925.82 2020.54,2920.3 2035.42,2920.3 2035.42,2982.94 2029.18,2982.94 2029.18,2925.82 "/>
  <polygon class="fil3" points="2058.83,2972.86 2049.83,2995.66 2045.62,2995.66 2052.1,2972.86 "/>
  <path class="fil3" d="M2066.99 2968.06l0 -4.56 31.8 -42.84 7.2 0 0 42.12 9.36 0 0 5.28 -9.36 0 0 14.88 -6 0 0 -14.88 -33 0zm33.24 -40.68l-26.16 35.4 26.16 0 0 -35.4z"/>
  <path class="fil3" d="M2130.46 2927.74c3.16,-5.19 8.79,-8.37 14.87,-8.37 0.56,0 1.13,0.03 1.69,0.08 0.6,-0.07 1.21,-0.1 1.82,-0.1 6.05,0 11.65,3.18 14.74,8.38 3.11,6.49 4.74,13.61 4.74,20.81 0,0.82 -0.02,1.66 -0.06,2.47 0.05,0.92 0.08,1.85 0.08,2.78 0,7.33 -1.62,14.59 -4.75,21.22 -3.9,5.23 -10.04,8.32 -16.56,8.32 -6.52,0 -12.67,-3.09 -16.56,-8.32 -3.14,-6.63 -4.76,-13.88 -4.76,-21.22 0,-0.93 0.03,-1.86 0.08,-2.78 -0.04,-0.81 -0.06,-1.65 -0.06,-2.47 0,-7.2 1.63,-14.31 4.75,-20.8l-0 0zm30.6 9.6c-0.53,-3.39 -2.08,-6.53 -4.44,-9.01 -2.34,-2.19 -5.42,-3.4 -8.61,-3.4 -0.33,0 -0.66,0.01 -0.99,0.04 -0.3,-0.02 -0.6,-0.03 -0.9,-0.03 -3.22,0 -6.33,1.22 -8.69,3.39 -2.31,2.51 -3.86,5.64 -4.44,9 -0.72,4.15 -1.09,8.38 -1.09,12.59 0,0.36 0.01,0.73 0.01,1.08 0,0.39 -0.01,0.82 -0.01,1.23 0,4.29 0.37,8.59 1.09,12.81 0.58,3.36 2.12,6.49 4.43,9 2.39,2.25 5.54,3.51 8.82,3.51 0.26,0 0.53,-0.01 0.78,-0.02 0.28,0.02 0.55,0.03 0.83,0.03 3.27,0 6.41,-1.26 8.77,-3.51 2.36,-2.48 3.91,-5.62 4.44,-9 0.79,-4.39 1.2,-8.87 1.2,-13.34 0,-0.23 0,-0.47 0,-0.7 0,-0.19 0,-0.39 0,-0.58 0,-4.39 -0.4,-8.79 -1.21,-13.11l0 0.01z"/>
  <path class="fil3" d="M2186.86 2927.74c3.08,-5.2 8.69,-8.39 14.74,-8.39 0.61,0 1.22,0.03 1.82,0.1 0.56,-0.05 1.13,-0.08 1.69,-0.08 6.07,0 11.71,3.17 14.87,8.36 3.12,6.49 4.74,13.6 4.74,20.8 0,0.82 -0.02,1.66 -0.06,2.47 0.05,0.92 0.08,1.85 0.08,2.78 0,7.33 -1.62,14.59 -4.75,21.22 -3.95,5.19 -10.1,8.24 -16.63,8.24 -6.52,0 -12.68,-3.05 -16.62,-8.24 -3.05,-6.68 -4.63,-13.95 -4.63,-21.29 0,-0.9 0.03,-1.81 0.07,-2.71 -0.04,-0.82 -0.06,-1.66 -0.06,-2.48 0,-7.2 1.63,-14.31 4.75,-20.8l0 0zm30.6 9.6c-0.58,-3.37 -2.13,-6.5 -4.44,-9.01 -2.37,-2.18 -5.48,-3.39 -8.7,-3.39 -0.3,0 -0.6,0.01 -0.9,0.03 -0.33,-0.03 -0.66,-0.04 -0.99,-0.04 -3.2,0 -6.27,1.22 -8.61,3.4 -2.36,2.48 -3.91,5.62 -4.44,9 -0.8,4.06 -1.21,8.22 -1.21,12.36 0,0.44 0.01,0.88 0.01,1.31 -0,0.48 -0.01,0.98 -0.01,1.46 0,4.22 0.41,8.44 1.21,12.59 0.53,3.38 2.08,6.52 4.44,9 2.36,2.25 5.51,3.51 8.77,3.51 0.28,0 0.55,-0.01 0.83,-0.03 0.26,0.01 0.52,0.02 0.78,0.02 3.28,0 6.43,-1.25 8.81,-3.5 2.32,-2.51 3.86,-5.64 4.44,-9 0.72,-4.22 1.09,-8.53 1.09,-12.81 0,-0.41 -0.01,-0.83 -0.01,-1.23 -0,-0.34 0,-0.72 0,-1.08 0,-4.21 -0.37,-8.44 -1.08,-12.6l-0 0.01z"/>
  <path class="fil3" d="M2237.74 2982.1c-0.83,-0.88 -1.3,-2.04 -1.32,-3.25 -0,-0.03 -0,-0.05 -0,-0.08 0,-1.19 0.48,-2.33 1.32,-3.16 0.81,-0.77 1.88,-1.21 3,-1.21 0.08,0 0.16,0 0.24,0.01 0.05,-0 0.1,-0 0.15,-0 1.07,0 2.1,0.44 2.84,1.2 0.84,0.83 1.32,1.97 1.32,3.16 0,0.03 0,0.05 0,0.08 -0.02,1.21 -0.49,2.36 -1.32,3.24 -0.75,0.77 -1.77,1.2 -2.84,1.2 -0.05,0 -0.1,0 -0.16,-0 -0.08,0.01 -0.16,0.01 -0.24,0.01 -1.12,0 -2.19,-0.44 -3,-1.21l0 0z"/>
  <path class="fil3" d="M2261.74 2927.74c3.08,-5.2 8.69,-8.39 14.74,-8.39 0.61,0 1.22,0.03 1.82,0.1 0.56,-0.05 1.13,-0.08 1.69,-0.08 6.07,0 11.71,3.17 14.87,8.36 3.12,6.49 4.74,13.6 4.74,20.8 0,0.82 -0.02,1.66 -0.06,2.47 0.05,0.92 0.08,1.85 0.08,2.78 0,7.33 -1.62,14.59 -4.75,21.22 -3.95,5.19 -10.1,8.24 -16.63,8.24 -6.52,0 -12.68,-3.05 -16.62,-8.24 -3.05,-6.68 -4.63,-13.95 -4.63,-21.29 0,-0.9 0.03,-1.81 0.07,-2.71 -0.04,-0.82 -0.06,-1.66 -0.06,-2.48 0,-7.2 1.63,-14.31 4.75,-20.8l0 0zm30.6 9.6c-0.58,-3.37 -2.13,-6.5 -4.44,-9.01 -2.37,-2.18 -5.48,-3.39 -8.7,-3.39 -0.3,0 -0.6,0.01 -0.9,0.03 -0.33,-0.03 -0.66,-0.04 -0.99,-0.04 -3.2,0 -6.27,1.22 -8.61,3.4 -2.36,2.48 -3.91,5.62 -4.44,9 -0.8,4.06 -1.21,8.22 -1.21,12.36 0,0.44 0.01,0.88 0.01,1.31 -0,0.48 -0.01,0.98 -0.01,1.46 0,4.22 0.41,8.44 1.21,12.59 0.53,3.38 2.08,6.52 4.44,9 2.36,2.25 5.51,3.51 8.77,3.51 0.28,0 0.55,-0.01 0.83,-0.03 0.26,0.01 0.52,0.02 0.78,0.02 3.28,0 6.43,-1.25 8.81,-3.5 2.32,-2.51 3.86,-5.64 4.44,-9 0.72,-4.22 1.09,-8.53 1.09,-12.81 0,-0.41 -0.01,-0.83 -0.01,-1.23 -0,-0.34 0,-0.72 0,-1.08 0,-4.21 -0.37,-8.44 -1.08,-12.6l-0 0.01z"/>
  <path class="fil3" d="M2318.14 2927.74c3.09,-5.2 8.69,-8.39 14.74,-8.39 0.61,0 1.22,0.03 1.82,0.1 0.56,-0.05 1.13,-0.08 1.69,-0.08 6.07,0 11.71,3.17 14.87,8.36 3.05,6.42 4.64,13.46 4.64,20.58 0,0.9 -0.03,1.81 -0.08,2.7 0.05,0.98 0.09,2 0.09,2.98 0,7.25 -1.59,14.44 -4.65,21.01 -3.95,5.19 -10.1,8.24 -16.62,8.24 -6.52,0 -12.68,-3.05 -16.62,-8.24 -3.05,-6.68 -4.63,-13.95 -4.63,-21.29 0,-0.9 0.03,-1.81 0.07,-2.71 -0.03,-0.82 -0.05,-1.66 -0.05,-2.48 0,-7.2 1.63,-14.31 4.75,-20.8l-0 0zm30.6 9.6c-0.63,-3.35 -2.17,-6.47 -4.44,-9.01 -2.37,-2.17 -5.48,-3.39 -8.7,-3.39 -0.3,0 -0.6,0.01 -0.9,0.03 -0.33,-0.03 -0.66,-0.04 -0.99,-0.04 -3.2,0 -6.27,1.22 -8.61,3.4 -2.36,2.48 -3.91,5.62 -4.44,9 -0.8,4.06 -1.22,8.22 -1.22,12.36 0,0.44 0.01,0.88 0.01,1.31 -0,0.48 -0.01,0.98 -0.01,1.46 0,4.22 0.41,8.44 1.21,12.59 0.54,3.38 2.09,6.52 4.44,9 2.36,2.25 5.51,3.51 8.77,3.51 0.28,0 0.55,-0.01 0.83,-0.03 0.26,0.01 0.52,0.02 0.78,0.02 3.28,0 6.43,-1.25 8.81,-3.5 2.28,-2.54 3.81,-5.66 4.44,-9 0.72,-4.22 1.09,-8.53 1.09,-12.81 0,-0.41 -0.01,-0.83 -0.01,-1.23 0,-0.34 0.01,-0.72 0.01,-1.08 0,-4.21 -0.37,-8.44 -1.08,-12.6l-0 0.01z"/>
  <path class="fil3" d="M2573.38 2974.66c-1.39,2.55 -3.47,4.68 -6,6.11 -2.95,1.73 -6.3,2.69 -9.72,2.77l0 6.96 -3.84 0 0 -7.08c-4.64,-0.25 -9.08,-2.02 -12.6,-5.05 -3.16,-2.82 -5.03,-6.81 -5.16,-11.04l6.6 0.01c0.2,2.67 1.3,5.21 3.12,7.19 2.15,2.18 4.99,3.54 8.04,3.84l0 -24c-3.23,-0.83 -6.42,-1.92 -9.49,-3.24 -2.35,-1.04 -4.39,-2.7 -5.87,-4.8 -1.66,-2.33 -2.54,-5.12 -2.54,-7.98 0,-0.26 0.01,-0.52 0.02,-0.78 -0.01,-0.27 -0.02,-0.55 -0.02,-0.83 0,-4.23 1.75,-8.28 4.83,-11.18 3.57,-3.09 8.15,-4.8 12.88,-4.8 0.06,0 0.14,0 0.2,0l0 -7.32 3.84 0 0 7.92c4.44,0.11 8.69,1.82 12,4.79 2.92,2.54 4.77,6.11 5.16,9.96l-6.48 0c-0.35,-2.29 -1.45,-4.41 -3.12,-6 -1.94,-1.87 -4.41,-3.09 -7.08,-3.48l0 23.28c3.15,0.78 6.26,1.83 9.24,3.12 2.41,1.11 4.52,2.8 6.12,4.92 1.57,2.49 2.41,5.38 2.41,8.34 0,0.22 -0,0.44 -0.01,0.67 -0.17,2.73 -1.04,5.37 -2.52,7.67l0 0.01zm-28.2 -30.12c2.57,1.96 5.51,3.39 8.64,4.2l0 -22.44c-3.1,0.01 -6.1,1.07 -8.52,3 -2,1.96 -3.13,4.65 -3.13,7.46 0,0.15 0,0.31 0.01,0.47 -0.01,0.21 -0.02,0.43 -0.02,0.64 0,2.56 1.1,4.99 3.03,6.68l0 0zm21.12 30.48c1.93,-2.06 3,-4.77 3,-7.58 0,-0.12 -0,-0.24 -0,-0.35 0.01,-0.21 0.02,-0.44 0.02,-0.65 0,-2.59 -1.1,-5.06 -3.03,-6.78 -2.59,-1.96 -5.52,-3.43 -8.64,-4.32l0 23.28c0.02,0 0.05,0 0.07,0 3.22,0 6.31,-1.3 8.57,-3.6l0 0.01z"/>
  <polygon class="fil3" points="2588.14,2925.82 2588.14,2920.3 2603.02,2920.3 2603.02,2982.94 2596.54,2982.94 2596.54,2925.82 "/>
  <polygon class="fil3" points="2626.06,2972.86 2617.06,2995.66 2612.86,2995.66 2619.34,2972.86 "/>
  <path class="fil3" d="M2640.82 2945.38c-1.87,-2.54 -2.88,-5.62 -2.88,-8.77 0,-0.12 0,-0.24 0,-0.35 0,-0.06 0,-0.13 0,-0.19 0,-2.91 0.83,-5.76 2.4,-8.21 1.75,-2.59 4.2,-4.64 7.08,-5.88 3.27,-1.43 6.81,-2.17 10.38,-2.17 0.22,0 0.44,0 0.66,0.01 0.22,-0 0.45,-0.01 0.68,-0.01 3.61,0 7.17,0.74 10.48,2.17 2.84,1.25 5.26,3.3 6.96,5.88 1.57,2.36 2.41,5.13 2.41,7.97 0,0.14 -0,0.29 -0.01,0.43 0.01,0.23 0.02,0.47 0.02,0.7 0,6.63 -4.59,12.36 -11.06,13.81 3.67,0.84 6.96,2.87 9.37,5.76 2.18,2.73 3.37,6.11 3.37,9.61 0,0.2 -0,0.4 -0.01,0.6 -0,0.1 -0,0.21 -0,0.31 0,3.33 -0.96,6.6 -2.76,9.41 -1.9,2.85 -4.62,5.07 -7.8,6.36 -3.69,1.51 -7.65,2.28 -11.64,2.28 -3.99,0 -7.95,-0.78 -11.64,-2.28 -3.14,-1.29 -5.82,-3.52 -7.68,-6.36 -1.8,-2.71 -2.77,-5.91 -2.77,-9.17 0,-0.19 0,-0.37 0.01,-0.55 -0.01,-0.2 -0.01,-0.39 -0.01,-0.59 0,-3.49 1.19,-6.88 3.37,-9.61 2.4,-2.89 5.7,-4.92 9.36,-5.76 -3.25,-0.91 -6.14,-2.79 -8.28,-5.4l0 0.01zm6 11.4c-2.88,2.12 -4.58,5.49 -4.58,9.07 0,0.21 0.01,0.43 0.02,0.64 -0.01,0.2 -0.01,0.4 -0.01,0.61 0,3.57 1.59,6.95 4.34,9.23 3.53,2.4 7.72,3.69 12,3.69 4.28,0 8.47,-1.29 12,-3.69 2.75,-2.28 4.34,-5.66 4.34,-9.23 0,-0.2 -0,-0.4 -0.01,-0.61 0,-0.21 0.01,-0.43 0.01,-0.64 0,-3.58 -1.7,-6.95 -4.58,-9.08 -3.18,-2.14 -6.93,-3.28 -10.77,-3.28 -0.41,0 -0.83,0.01 -1.23,0.04 -0.4,-0.02 -0.81,-0.04 -1.21,-0.04 -3.64,0 -7.21,1.01 -10.31,2.92l0 0.37zm22.32 -28.68c-2.81,-2.13 -6.24,-3.27 -9.76,-3.27 -0.31,0 -0.62,0.01 -0.93,0.03 -0.28,-0.01 -0.57,-0.02 -0.85,-0.02 -3.48,0 -6.88,1.1 -9.71,3.14 -2.46,2.27 -3.86,5.47 -3.86,8.82 0,3.35 1.4,6.55 3.86,8.82 2.85,2.11 6.31,3.25 9.86,3.25 0.23,0 0.47,-0 0.7,-0.01 0.03,0 0.06,0 0.09,0 3.62,0 7.15,-1.23 9.99,-3.48 2.58,-1.95 4.09,-5 4.09,-8.23 0,-0.14 -0,-0.28 -0.01,-0.41 0.04,-0.37 0.06,-0.74 0.06,-1.12 0,-3.01 -1.29,-5.88 -3.54,-7.89l0 0.37z"/>
  <path class="fil3" d="M2698.66 2927.74c3.92,-5.19 10.05,-8.25 16.56,-8.25 6.5,0 12.64,3.05 16.56,8.24 3.12,6.49 4.74,13.6 4.74,20.8 0,0.82 -0.02,1.66 -0.06,2.47 0.05,0.92 0.08,1.85 0.08,2.78 0,7.33 -1.62,14.59 -4.75,21.22 -3.13,5.19 -8.75,8.37 -14.81,8.37 -0.59,0 -1.17,-0.03 -1.76,-0.09 -0.58,0.06 -1.16,0.09 -1.74,0.09 -6.1,0 -11.76,-3.17 -14.94,-8.37 -3.05,-6.68 -4.63,-13.95 -4.63,-21.29 0,-0.9 0.03,-1.81 0.07,-2.71 -0.04,-0.82 -0.06,-1.66 -0.06,-2.48 0,-7.2 1.63,-14.31 4.75,-20.8l-0 0zm30.6 9.6c-0.58,-3.37 -2.13,-6.5 -4.44,-9.01 -2.73,-2.19 -6.11,-3.37 -9.61,-3.37 -3.49,0 -6.88,1.19 -9.6,3.37 -2.31,2.51 -3.86,5.64 -4.44,9 -0.8,4.31 -1.21,8.71 -1.21,13.1 0,0.19 0,0.39 0,0.58 0,0.23 0,0.47 0,0.7 0,4.47 0.41,8.94 1.2,13.34 0.59,3.36 2.13,6.49 4.44,9 2.69,2.25 6.09,3.47 9.6,3.47 3.51,0 6.91,-1.23 9.6,-3.47 2.32,-2.51 3.86,-5.64 4.44,-9 0.79,-4.39 1.2,-8.87 1.2,-13.34 0,-0.23 0,-0.47 0,-0.7 0,-0.19 0,-0.39 0,-0.58 0,-4.39 -0.4,-8.79 -1.21,-13.11l0 0.01z"/>
  <path class="fil3" d="M2755.06 2927.74c3.09,-5.2 8.69,-8.39 14.74,-8.39 0.61,0 1.22,0.03 1.82,0.1 0.55,-0.05 1.12,-0.08 1.69,-0.08 6.07,0 11.71,3.17 14.87,8.36 3.05,6.42 4.64,13.46 4.64,20.58 0,0.9 -0.03,1.81 -0.08,2.7 0.05,0.98 0.09,2 0.09,2.98 0,7.25 -1.59,14.44 -4.65,21.01 -3.95,5.19 -10.1,8.24 -16.62,8.24 -6.52,0 -12.68,-3.05 -16.62,-8.24 -3.05,-6.68 -4.63,-13.95 -4.63,-21.29 0,-0.9 0.03,-1.81 0.07,-2.71 -0.03,-0.82 -0.05,-1.66 -0.05,-2.48 0,-7.2 1.63,-14.31 4.75,-20.8l-0 0zm30.6 9.6c-0.59,-3.37 -2.13,-6.5 -4.44,-9.01 -2.37,-2.18 -5.48,-3.39 -8.7,-3.39 -0.3,0 -0.6,0.01 -0.9,0.03 -0.33,-0.03 -0.66,-0.04 -0.99,-0.04 -3.2,0 -6.27,1.22 -8.61,3.4 -2.36,2.48 -3.91,5.62 -4.44,9 -0.8,4.06 -1.22,8.22 -1.22,12.36 0,0.44 0.01,0.88 0.01,1.31 -0,0.48 -0.01,0.98 -0.01,1.46 0,4.22 0.41,8.44 1.21,12.59 0.54,3.38 2.09,6.52 4.44,9 2.36,2.25 5.51,3.51 8.77,3.51 0.28,0 0.55,-0.01 0.83,-0.03 0.26,0.01 0.52,0.02 0.78,0.02 3.28,0 6.43,-1.25 8.81,-3.5 2.31,-2.51 3.86,-5.64 4.44,-9 0.72,-4.22 1.09,-8.53 1.09,-12.81 0,-0.41 -0.01,-0.83 -0.01,-1.23 -0,-0.34 0,-0.72 0,-1.08 0,-4.21 -0.37,-8.44 -1.08,-12.6l0 0.01z"/>
  <path class="fil3" d="M2805.94 2982.1c-0.83,-0.88 -1.3,-2.04 -1.32,-3.25 -0,-0.03 -0,-0.05 -0,-0.08 0,-1.19 0.48,-2.33 1.32,-3.16 0.81,-0.77 1.88,-1.21 3,-1.21 0.08,0 0.16,0 0.24,0.01 0.05,-0 0.11,-0 0.16,-0 1.07,0 2.1,0.44 2.84,1.2 0.84,0.83 1.32,1.97 1.32,3.16 0,0.03 0,0.05 0,0.08 -0.02,1.21 -0.49,2.36 -1.32,3.24 -0.74,0.77 -1.77,1.2 -2.84,1.2 -0.05,0 -0.1,0 -0.16,-0 -0.08,0.01 -0.16,0.01 -0.24,0.01 -1.12,0 -2.19,-0.44 -3,-1.21l0 0z"/>
  <path class="fil3" d="M2829.94 2927.74c3.09,-5.2 8.69,-8.39 14.74,-8.39 0.61,0 1.22,0.03 1.82,0.1 0.55,-0.05 1.12,-0.08 1.69,-0.08 6.07,0 11.71,3.17 14.87,8.36 3.12,6.49 4.74,13.6 4.74,20.8 0,0.82 -0.02,1.66 -0.06,2.47 0.05,0.92 0.08,1.85 0.08,2.78 0,7.33 -1.62,14.59 -4.75,21.22 -3.95,5.19 -10.1,8.24 -16.63,8.24 -6.52,0 -12.68,-3.05 -16.62,-8.24 -3.05,-6.68 -4.63,-13.95 -4.63,-21.29 0,-0.9 0.03,-1.81 0.07,-2.71 -0.03,-0.82 -0.05,-1.66 -0.05,-2.48 0,-7.2 1.63,-14.31 4.75,-20.8l-0 0zm30.6 9.6c-0.59,-3.37 -2.13,-6.5 -4.44,-9.01 -2.37,-2.18 -5.48,-3.39 -8.7,-3.39 -0.3,0 -0.6,0.01 -0.9,0.03 -0.33,-0.03 -0.66,-0.04 -0.99,-0.04 -3.2,0 -6.27,1.22 -8.61,3.4 -2.36,2.48 -3.91,5.62 -4.44,9 -0.8,4.06 -1.22,8.22 -1.22,12.36 0,0.44 0.01,0.88 0.01,1.31 -0,0.48 -0.01,0.98 -0.01,1.46 0,4.22 0.41,8.44 1.21,12.59 0.54,3.38 2.09,6.52 4.44,9 2.36,2.25 5.51,3.51 8.77,3.51 0.28,0 0.55,-0.01 0.83,-0.03 0.26,0.01 0.52,0.02 0.78,0.02 3.28,0 6.43,-1.25 8.81,-3.5 2.31,-2.51 3.86,-5.64 4.44,-9 0.72,-4.22 1.09,-8.53 1.09,-12.81 0,-0.41 -0.01,-0.83 -0.01,-1.23 -0,-0.34 0,-0.72 0,-1.08 0,-4.21 -0.37,-8.44 -1.08,-12.6l0 0.01z"/>
  <path class="fil3" d="M2886.34 2927.74c3.09,-5.2 8.69,-8.39 14.74,-8.39 0.61,0 1.22,0.03 1.82,0.1 0.56,-0.05 1.13,-0.08 1.69,-0.08 6.07,0 11.71,3.17 14.87,8.36 3.05,6.42 4.64,13.46 4.64,20.58 0,0.9 -0.03,1.81 -0.08,2.7 0.05,0.98 0.09,2 0.09,2.98 0,7.25 -1.59,14.44 -4.65,21.01 -3.94,5.19 -10.1,8.24 -16.62,8.24 -6.52,0 -12.68,-3.05 -16.62,-8.24 -3.05,-6.68 -4.63,-13.95 -4.63,-21.29 0,-0.9 0.03,-1.81 0.07,-2.71 -0.04,-0.82 -0.06,-1.66 -0.06,-2.48 0,-7.2 1.63,-14.31 4.75,-20.8l-0 0zm30.6 9.6c-0.63,-3.35 -2.17,-6.47 -4.44,-9.01 -2.37,-2.17 -5.48,-3.39 -8.7,-3.39 -0.3,0 -0.6,0.01 -0.9,0.03 -0.33,-0.03 -0.66,-0.04 -0.99,-0.04 -3.2,0 -6.27,1.22 -8.61,3.4 -2.36,2.48 -3.91,5.62 -4.44,9 -0.8,4.06 -1.21,8.22 -1.21,12.36 0,0.44 0.01,0.88 0.01,1.31 -0.01,0.48 -0.02,0.98 -0.02,1.46 0,4.22 0.41,8.44 1.21,12.59 0.54,3.38 2.09,6.52 4.44,9 2.36,2.25 5.51,3.51 8.77,3.51 0.28,0 0.55,-0.01 0.83,-0.03 0.26,0.01 0.52,0.02 0.78,0.02 3.28,0 6.43,-1.25 8.81,-3.5 2.28,-2.54 3.81,-5.66 4.44,-9 0.72,-4.22 1.09,-8.53 1.09,-12.81 0,-0.41 -0.01,-0.83 -0.01,-1.23 0,-0.34 0.01,-0.72 0.01,-1.08 0,-4.21 -0.37,-8.44 -1.08,-12.6l-0 0.01z"/>
  <path class="fil4" d="M321.84 2149.43l360 0c33.14,0 60,26.87 60,60l0 638.15 -480 0 0 -638.16c0,-33.13 26.87,-60 60,-60l-0 0z"/>
  <path class="fil5" d="M865.07 1887.59l360 0c33.14,0 60,26.87 60,60l0 900 -480 0 0 -899.99c0,-33.14 26.87,-60 60,-60l-0 0z"/>
  <path class="fil6" d="M1998.46 1712.99l360 0c33.13,0 60,26.87 60,60l0 1074.59 -479.99 0 0 -1074.59c0,-33.13 26.87,-60 60,-60z"/>
  <path class="fil7" d="M1418.15 1451.27l360 0c33.13,0 60,26.87 60,60l0 1336.31 -480 0 0 -1336.31c0.01,-33.13 26.88,-60 60.01,-60l-0 0z"/>
  <path class="fil8" d="M2566.78 1320.23l360 0c33.13,0 60,26.87 60,60l0 1467.35 -479.99 0 0 -1467.35c0,-33.13 26.87,-60 60,-60z"/>
  <circle class="fil9" cx="618.95" cy="3932.97" r="245.28"/>
  <circle class="fil10" cx="1297.19" cy="3932.97" r="245.28"/>
  <circle class="fil11" cx="1975.42" cy="3932.97" r="245.28"/>
  <circle class="fil12" cx="2653.78" cy="3932.97" r="245.28"/>
  <path class="fil1" d="M466.32 3965.37l0 -19.2 44.16 -63.12 26.64 0 0 61.68 12 -0 0 20.64 -12 0 0 18.12 -24 0 0 -18.12 -46.8 0zm48.6 -56.16l-24 36 24 -0 0 -36z"/>
  <path class="fil1" d="M636.23 3902.13l-43.68 0 0 19.32c2.21,-2.22 4.88,-3.95 7.81,-5.05 3.36,-1.27 6.94,-1.92 10.54,-1.92 0.12,0 0.25,0 0.38,0 0.39,-0.02 0.78,-0.03 1.17,-0.03 5.75,0 11.38,1.63 16.23,4.7 4.45,2.93 7.97,7.11 10.07,12 2.14,5.03 3.25,10.46 3.25,15.94 0,0.12 0,0.26 0,0.39 0.03,0.59 0.05,1.19 0.05,1.79 0,8.91 -3.31,17.52 -9.28,24.13 -6.37,6.13 -14.87,9.56 -23.71,9.56 -0.73,0 -1.48,-0.03 -2.21,-0.07 -0.42,0.01 -0.86,0.02 -1.28,0.02 -6.25,0 -12.45,-1.32 -18.16,-3.86 -5.17,-2.27 -9.59,-5.98 -12.72,-10.68 -2.98,-4.71 -4.64,-10.15 -4.8,-15.72l23.27 0.01c0.54,2.77 1.97,5.31 4.09,7.19 2.26,1.87 5.11,2.9 8.05,2.9 0.24,0 0.48,-0.01 0.72,-0.02 0.2,0.01 0.39,0.01 0.59,0.01 3.51,0 6.85,-1.54 9.13,-4.21 2.12,-3.04 3.26,-6.66 3.26,-10.37 0,-0.26 -0,-0.54 -0.02,-0.79 0.03,-0.34 0.04,-0.68 0.04,-1.02 0,-3.47 -1.2,-6.85 -3.4,-9.55 -2.26,-2.33 -5.37,-3.65 -8.62,-3.65 -0.37,0 -0.74,0.02 -1.1,0.05 -0.13,0 -0.27,-0 -0.41,-0 -2.64,0 -5.22,0.8 -7.39,2.29 -2.03,1.5 -3.48,3.67 -4.08,6.12l-22.93 0 0 -60.24 65.16 0 0 20.76z"/>
  <path class="fil1" d="M664.55 3889.65c4.3,-4.03 9.96,-6.27 15.85,-6.27 0.36,0 0.72,0.01 1.07,0.03 0.44,-0.03 0.88,-0.04 1.31,-0.04 12.13,0 21.96,9.83 21.96,21.96 0,0.69 -0.04,1.39 -0.1,2.08 0.08,0.78 0.13,1.56 0.13,2.34 0,11.99 -9.73,21.72 -21.72,21.72 -0.52,0 -1.05,-0.02 -1.57,-0.05 -0.05,0 -0.1,0 -0.14,0 -6.27,0 -12.3,-2.46 -16.78,-6.84 -4.17,-4.32 -6.52,-10.1 -6.52,-16.11 0,-0.47 0.01,-0.94 0.04,-1.41 -0.03,-0.49 -0.05,-0.98 -0.05,-1.48 0,-5.96 2.35,-11.68 6.53,-15.92l-0.01 0.01zm10.08 17.4c0,6.36 2.16,9.48 6.6,9.48 0.12,0 0.24,0 0.36,0 1.86,0 3.61,-0.9 4.69,-2.41 1.19,-1.91 1.82,-4.11 1.82,-6.36 0,-0.24 -0.01,-0.49 -0.02,-0.73 0,-6.36 -2.28,-9.6 -6.84,-9.6 -4.56,0 -7.21,3.25 -7.21,9.61l0.6 0zm78.24 -22.08l-53.76 98.28 -23.64 0 53.76 -98.28 23.64 0zm-21.84 58.8c4.26,-3.95 9.86,-6.15 15.67,-6.15 0.34,0 0.68,0.01 1.02,0.02 0.25,-0.01 0.51,-0.01 0.77,-0.01 5.91,0 11.62,2.19 16.02,6.13 4.11,4.89 6.37,11.08 6.37,17.46 0,6.39 -2.26,12.57 -6.37,17.46 -4.4,3.95 -10.11,6.13 -16.03,6.13 -0.26,0 -0.52,-0 -0.78,-0.01 -13.17,-0.12 -23.78,-10.84 -23.78,-24 0,-6.4 2.56,-12.54 7.1,-17.04l-0 0.01zm12 10.2c-1.19,1.9 -1.83,4.12 -1.83,6.37 0,0.31 0.01,0.63 0.04,0.94 0,6.24 2.28,9.48 6.72,9.48 0.08,0 0.16,0 0.24,0 1.89,0 3.67,-0.89 4.8,-2.4 1.19,-1.91 1.82,-4.11 1.82,-6.36 0,-0.24 -0.01,-0.49 -0.02,-0.73 0.02,-0.27 0.03,-0.55 0.03,-0.83 0,-2.25 -0.63,-4.46 -1.83,-6.37 -1.18,-1.56 -3.03,-2.48 -4.98,-2.48 -1.95,0 -3.8,0.92 -4.98,2.48l-0 -0.11z"/>
  <path class="fil1" d="M1156.55 3960.69c9.12,-7.56 16.32,-13.8 21.6,-18.6 5.04,-4.51 9.54,-9.65 13.33,-15.25 3.32,-4.49 5.22,-9.89 5.4,-15.48 0.01,-0.29 0.03,-0.59 0.03,-0.88 0,-2.88 -0.94,-5.69 -2.67,-8 -1.85,-2.07 -4.49,-3.26 -7.27,-3.26 -0.22,0 -0.44,0.01 -0.65,0.02 -0.17,-0.01 -0.34,-0.01 -0.5,-0.01 -3.08,0 -5.97,1.48 -7.78,3.97 -1.99,2.97 -3.05,6.45 -3.05,10.02 0,0.42 0.01,0.85 0.05,1.27l-23.04 0c0,-0.25 -0,-0.52 -0,-0.78 0,-6.67 1.75,-13.24 5.05,-19.03 2.92,-5.2 7.37,-9.4 12.72,-12.01 5.34,-2.53 11.18,-3.84 17.1,-3.84 0.14,0 0.29,0 0.43,0 0.8,-0.05 1.62,-0.08 2.44,-0.08 8.34,0 16.41,3.07 22.64,8.61 5.41,5.62 8.43,13.13 8.43,20.94 0,0.42 -0.01,0.84 -0.03,1.26 -0.04,10.15 -3.66,19.96 -10.2,27.72 -7.61,9.28 -16.35,17.72 -25.92,24.96l37.68 0 0 19.44 -70.08 0 0 -17.52 4.32 -3.48z"/>
  <path class="fil1" d="M1308.95 3902.13l-43.56 0 0 19.32c2.19,-2.25 4.86,-3.98 7.81,-5.05 3.37,-1.27 6.94,-1.92 10.54,-1.92 0.12,0 0.25,0 0.38,0 0.39,-0.02 0.78,-0.03 1.17,-0.03 5.75,0 11.38,1.63 16.23,4.7 4.4,2.99 7.9,7.15 10.08,12 2.14,5.03 3.24,10.46 3.24,15.94 0,0.12 0,0.26 0,0.39 0.03,0.59 0.05,1.19 0.05,1.79 0,8.91 -3.31,17.52 -9.28,24.13 -6.37,6.13 -14.87,9.56 -23.71,9.56 -0.73,0 -1.48,-0.03 -2.21,-0.07 -0.42,0.01 -0.86,0.02 -1.28,0.02 -6.25,0 -12.45,-1.32 -18.16,-3.86 -5.17,-2.27 -9.59,-5.98 -12.72,-10.68 -3.03,-4.69 -4.7,-10.14 -4.8,-15.72l23.28 0.01c0.47,2.8 1.91,5.35 4.09,7.19 2.18,1.88 4.97,2.92 7.84,2.92 0.31,0 0.62,-0.01 0.92,-0.04 0.2,0.01 0.39,0.02 0.59,0.02 3.51,0 6.85,-1.54 9.13,-4.21 2.12,-3.04 3.26,-6.66 3.26,-10.37 0,-0.26 -0,-0.54 -0.02,-0.79 0.03,-0.34 0.04,-0.68 0.04,-1.02 0,-3.47 -1.2,-6.85 -3.4,-9.55 -2.26,-2.33 -5.37,-3.65 -8.62,-3.65 -0.37,0 -0.74,0.02 -1.1,0.05 -0.13,0 -0.27,-0 -0.41,-0 -2.64,0 -5.22,0.8 -7.39,2.29 -2.08,1.46 -3.53,3.65 -4.08,6.12l-23.04 0 0 -60.24 65.16 0 0 20.76z"/>
  <path class="fil1" d="M1336.55 3889.65c4.66,-4.04 10.64,-6.26 16.8,-6.26 6.17,0 12.14,2.23 16.8,6.26 4.18,4.24 6.53,9.96 6.53,15.92 0,0.49 -0.02,0.99 -0.05,1.48 0.08,0.78 0.12,1.56 0.12,2.34 0,11.99 -9.73,21.72 -21.72,21.72 -0.56,0 -1.12,-0.02 -1.69,-0.07 -0.25,0.01 -0.52,0.02 -0.78,0.02 -5.91,0 -11.62,-2.19 -16.02,-6.13 -4.17,-4.32 -6.52,-10.1 -6.52,-16.11 0,-0.47 0.01,-0.94 0.04,-1.41 -0.05,-0.61 -0.08,-1.22 -0.08,-1.82 0,-5.97 2.36,-11.71 6.55,-15.95l-0 0.01zm9.96 17.4c0,6.36 2.28,9.48 6.72,9.48 0.12,0 0.24,0 0.36,0 1.86,0 3.61,-0.9 4.69,-2.41 1.19,-1.91 1.82,-4.11 1.82,-6.36 0,-0.24 -0.01,-0.49 -0.02,-0.73 0,-6.36 -2.28,-9.6 -6.84,-9.6 -4.56,0 -6.61,3.25 -6.61,9.61l-0.12 0zm78.36 -22.08l-53.76 98.28 -22.56 0 53.76 -98.28 22.56 0zm-21.84 58.8c4.26,-3.95 9.86,-6.15 15.67,-6.15 0.34,0 0.68,0.01 1.02,0.02 1.46,-0.28 2.97,-0.42 4.47,-0.42 13.25,0 24,10.75 24,24 0,13.25 -10.75,24 -24,24 -1.5,0 -3,-0.14 -4.47,-0.42 -13.17,-0.12 -23.78,-10.84 -23.78,-24.01 0,-6.4 2.56,-12.54 7.1,-17.04l0 0.01zm12 10.2c-1.19,1.9 -1.83,4.12 -1.83,6.37 0,0.31 0.01,0.63 0.04,0.94 0,6.24 2.28,9.48 6.72,9.48 0.08,0 0.16,0 0.24,0 1.89,0 3.67,-0.89 4.8,-2.4 1.19,-1.91 1.82,-4.11 1.82,-6.36 0,-0.24 -0.01,-0.49 -0.02,-0.73 0.02,-0.27 0.03,-0.55 0.03,-0.83 0,-2.25 -0.63,-4.46 -1.83,-6.37 -1.1,-1.58 -2.9,-2.52 -4.83,-2.52 -0.07,0 -0.14,0 -0.21,0 -0.17,-0.02 -0.35,-0.03 -0.53,-0.03 -1.85,0 -3.58,0.91 -4.64,2.43l0.24 0.01z"/>
  <path class="fil1" d="M1836.7 3960.69c9.12,-7.56 16.32,-13.8 21.6,-18.6 5.03,-4.51 9.53,-9.65 13.32,-15.25 3.41,-4.46 5.34,-9.87 5.52,-15.48 0.02,-0.24 0.02,-0.49 0.02,-0.73 0,-2.95 -0.98,-5.81 -2.78,-8.15 -1.78,-2.08 -4.38,-3.27 -7.12,-3.27 -0.27,0 -0.54,0.01 -0.81,0.04 -0.11,0 -0.22,-0 -0.33,-0 -3.12,0 -6.07,1.47 -7.96,3.96 -1.98,2.97 -3.04,6.45 -3.04,10.02 0,0.42 0.01,0.85 0.05,1.27l-23.04 0c0,-0.15 -0,-0.32 -0,-0.47 0,-6.77 1.74,-13.43 5.04,-19.34 2.91,-5.2 7.36,-9.39 12.72,-12 5.37,-2.52 11.24,-3.84 17.18,-3.84 0.11,0 0.23,0 0.34,0 0.82,-0.06 1.66,-0.09 2.48,-0.09 8.33,0 16.38,3.07 22.6,8.61 5.47,5.66 8.54,13.23 8.54,21.11 0,0.36 -0.01,0.73 -0.02,1.09 -0.11,10.14 -3.72,19.94 -10.2,27.72 -7.65,9.3 -16.43,17.72 -26.04,24.97l37.68 0 0 19.44 -70.08 0 0 -17.52 4.32 -3.48z"/>
  <path class="fil1" d="M1926.46 3893.37c7.47,-8.81 18.45,-13.89 30,-13.89 11.55,0 22.52,5.08 30,13.88 6.18,10.35 9.46,22.18 9.46,34.24 0,1.18 -0.04,2.39 -0.1,3.56 0.08,1.22 0.11,2.48 0.11,3.71 0,12.12 -3.28,24.03 -9.46,34.45 -7.48,8.8 -18.45,13.88 -30,13.88 -11.55,0 -22.52,-5.08 -30,-13.88 -6.12,-10.38 -9.35,-22.23 -9.35,-34.29 0,-1.29 0.04,-2.59 0.11,-3.87 -0.06,-1.23 -0.1,-2.49 -0.1,-3.74 0,-11.98 3.23,-23.75 9.34,-34.06l0 0.01zm42.6 16.08c-2.52,-4.65 -7.38,-7.55 -12.66,-7.55 -5.28,0 -10.15,2.89 -12.66,7.54 -2.1,6.19 -3.17,12.71 -3.17,19.25 0,0.82 0.02,1.66 0.05,2.48 0,0.44 -0.01,0.93 -0.01,1.39 0,4.78 0.37,9.59 1.09,14.32 0.59,3.71 2.17,7.19 4.56,10.09 2.8,2.46 6.41,3.82 10.14,3.82 3.73,0 7.34,-1.36 10.14,-3.82 2.39,-2.89 3.97,-6.38 4.56,-10.08 0.72,-4.73 1.09,-9.54 1.09,-14.33 0,-0.46 -0.01,-0.95 -0.01,-1.4 0.04,-0.88 0.06,-1.79 0.06,-2.68 0,-6.55 -1.07,-13.08 -3.18,-19.27l0 0.24z"/>
  <path class="fil1" d="M2016.95 3889.65c4.37,-4.64 10.47,-7.27 16.84,-7.27 12.79,0 23.16,10.37 23.16,23.16 0,0.5 -0.02,1.01 -0.05,1.51 0.02,0.4 0.04,0.81 0.04,1.21 0,6.05 -2.29,11.87 -6.39,16.3 -4.39,4.61 -10.49,7.22 -16.85,7.22 -12.85,0 -23.28,-10.43 -23.28,-23.28 0,-0.49 0.02,-0.97 0.05,-1.45 -0.03,-0.49 -0.05,-0.98 -0.05,-1.48 0,-5.96 2.35,-11.68 6.53,-15.92l0 0.01zm9.96 17.4c0,6.36 2.28,9.48 6.72,9.48 0.11,0 0.23,0 0.35,0 1.86,0 3.61,-0.9 4.69,-2.41 1.19,-1.91 1.82,-4.11 1.82,-6.36 0,-0.24 -0.01,-0.49 -0.02,-0.73 0,-6.36 -2.28,-9.6 -6.84,-9.6 -4.56,0 -6.72,3.25 -6.72,9.61zm78.36 -22.08l-53.76 98.28 -23.04 0 53.76 -98.28 23.04 0zm-21.96 58.8c4.37,-4.65 10.47,-7.29 16.85,-7.29 12.79,0 23.16,10.37 23.16,23.16 0,0.54 -0.02,1.1 -0.06,1.64 0.03,0.45 0.05,0.91 0.05,1.37 0,5.96 -2.29,11.71 -6.4,16.03 -4.71,3.95 -10.66,6.11 -16.8,6.11 -6.14,0 -12.09,-2.16 -16.8,-6.1 -4.11,-4.89 -6.37,-11.08 -6.37,-17.46 0,-6.39 2.26,-12.57 6.37,-17.46l0 0.01zm12 10.2c-1.12,1.95 -1.71,4.17 -1.71,6.43 0,0.29 0.01,0.59 0.03,0.88 0,6.24 2.28,9.48 6.72,9.48 0.08,0 0.16,0 0.24,0 1.89,0 3.67,-0.89 4.8,-2.4 1.19,-1.91 1.82,-4.11 1.82,-6.36 0,-0.24 -0.01,-0.49 -0.02,-0.73 0.02,-0.27 0.03,-0.55 0.03,-0.83 0,-2.25 -0.63,-4.46 -1.83,-6.37 -1.1,-1.58 -2.91,-2.52 -4.83,-2.52 -0.07,0 -0.14,0 -0.21,0 -0.19,-0.02 -0.39,-0.03 -0.58,-0.03 -1.9,0 -3.69,0.9 -4.82,2.43l0.36 0.01z"/>
  <polygon class="fil1" points="2524.54,3903.57 2524.54,3881.37 2563.3,3881.37 2563.3,3983.25 2538.34,3983.25 2538.34,3903.57 "/>
  <path class="fil1" d="M2592.94 3893.37c7.47,-8.81 18.45,-13.89 30,-13.89 11.55,0 22.52,5.08 30,13.88 6.18,10.35 9.46,22.18 9.46,34.24 0,1.18 -0.04,2.39 -0.1,3.56 0.08,1.22 0.11,2.48 0.11,3.71 0,12.12 -3.28,24.03 -9.46,34.45 -7.48,8.8 -18.45,13.88 -30,13.88 -11.55,0 -22.52,-5.08 -30,-13.88 -6.12,-10.38 -9.36,-22.23 -9.36,-34.29 0,-1.29 0.04,-2.59 0.11,-3.87 -0.06,-1.23 -0.1,-2.49 -0.1,-3.74 0,-11.98 3.23,-23.75 9.34,-34.06l0.01 0.01zm42.72 16.08c-1.79,-4.63 -6.24,-7.67 -11.19,-7.67 -0.51,0 -1.03,0.03 -1.53,0.1 -0.51,-0.07 -1.02,-0.1 -1.53,-0.1 -4.95,0 -9.4,3.04 -11.19,7.66 -2.1,6.19 -3.17,12.71 -3.17,19.25 0,0.82 0.02,1.66 0.05,2.48 0,0.44 -0.01,0.93 -0.01,1.39 0,4.78 0.37,9.59 1.09,14.32 0.6,3.71 2.18,7.19 4.57,10.09 2.8,2.46 6.4,3.82 10.14,3.82 3.73,0 7.34,-1.36 10.14,-3.82 2.44,-2.87 4.02,-6.36 4.56,-10.08 0.72,-4.73 1.09,-9.54 1.09,-14.33 0,-0.46 -0.01,-0.95 -0.01,-1.4 0.05,-0.95 0.07,-1.93 0.07,-2.89 0,-6.47 -1.04,-12.92 -3.07,-19.06l0 0.24z"/>
  <path class="fil1" d="M2683.42 3889.65c4.66,-4.04 10.63,-6.26 16.8,-6.26 6.17,0 12.14,2.23 16.8,6.26 4.11,4.23 6.42,9.91 6.42,15.81 0,0.53 -0.02,1.07 -0.05,1.59 0.09,0.81 0.14,1.65 0.14,2.47 0,11.93 -9.67,21.6 -21.6,21.6 -0.57,0 -1.14,-0.02 -1.7,-0.07 -0.25,0.01 -0.52,0.01 -0.78,0.01 -5.91,0 -11.62,-2.19 -16.02,-6.13 -4.18,-4.32 -6.52,-10.1 -6.52,-16.11 0,-0.47 0.01,-0.94 0.04,-1.41 -0.05,-0.61 -0.08,-1.22 -0.08,-1.82 0,-5.97 2.36,-11.71 6.55,-15.95l0 0.01zm9.96 17.4c0,6.36 2.28,9.48 6.72,9.48 0.11,0 0.23,0 0.35,0 1.86,0 3.61,-0.9 4.69,-2.41 1.19,-1.91 1.82,-4.11 1.82,-6.36 0,-0.24 -0.01,-0.49 -0.02,-0.73 0,-6.36 -2.28,-9.6 -6.84,-9.6 -4.56,0 -6.72,3.25 -6.72,9.61zm78.36 -22.08l-53.76 98.28 -23.04 0 53.76 -98.28 23.04 0zm-21.96 58.8c4.37,-4.65 10.47,-7.29 16.85,-7.29 12.79,0 23.16,10.37 23.16,23.16 0,0.54 -0.02,1.1 -0.06,1.64 0.03,0.45 0.05,0.91 0.05,1.37 0,5.96 -2.29,11.71 -6.4,16.03 -4.71,3.95 -10.66,6.11 -16.8,6.11 -6.14,0 -12.09,-2.16 -16.8,-6.1 -4.11,-4.89 -6.37,-11.08 -6.37,-17.46 0,-6.39 2.26,-12.57 6.37,-17.46l0 0.01zm12 10.2c-1.12,1.95 -1.71,4.17 -1.71,6.43 0,0.29 0.01,0.59 0.03,0.88 0,6.24 2.28,9.48 6.72,9.48 0.08,0 0.16,0 0.24,0 1.89,0 3.67,-0.89 4.8,-2.4 1.19,-1.91 1.82,-4.11 1.82,-6.36 0,-0.24 -0.01,-0.49 -0.02,-0.73 0.02,-0.27 0.03,-0.55 0.03,-0.83 0,-2.25 -0.63,-4.46 -1.83,-6.37 -1.1,-1.58 -2.91,-2.52 -4.83,-2.52 -0.07,0 -0.14,0 -0.21,0 -0.19,-0.02 -0.39,-0.03 -0.58,-0.03 -1.9,0 -3.69,0.9 -4.82,2.43l0.36 0.01z"/>
  <path class="fil3" d="M444 4281.45c2.53,-4.63 6.27,-8.49 10.8,-11.17 4.5,-2.59 9.61,-3.96 14.8,-3.96 0.1,0 0.21,0 0.31,0 0.28,0 0.56,-0.01 0.83,-0.01 5.92,0 11.72,1.71 16.69,4.93 4.93,3.27 8.65,8.08 10.56,13.68l-7.09 0.01c-1.6,-4 -4.41,-7.4 -8.03,-9.73 -3.63,-2.28 -7.84,-3.5 -12.13,-3.5 -0.28,0 -0.56,0 -0.83,0.01 -0.19,0 -0.38,-0 -0.57,-0 -4.02,0 -7.97,1.08 -11.43,3.13 -3.66,2.08 -6.64,5.22 -8.52,9 -1.97,4.03 -3,8.47 -3,12.96 0,0.24 0,0.49 0.01,0.73 -0.01,0.26 -0.01,0.53 -0.01,0.79 0,4.43 1.03,8.8 3.01,12.76 1.88,3.77 4.85,6.92 8.52,9 3.51,2.12 7.53,3.24 11.62,3.24 0.13,0 0.26,-0 0.38,-0 0.16,0 0.33,0 0.5,0 4.39,0 8.7,-1.21 12.45,-3.49 3.59,-2.31 6.39,-5.66 8.04,-9.6l7.08 0c-1.91,5.56 -5.63,10.33 -10.55,13.56 -4.96,3.14 -10.72,4.81 -16.59,4.81 -0.31,0 -0.63,-0.01 -0.94,-0.01 -0.11,0 -0.21,0 -0.32,0 -5.2,0 -10.3,-1.37 -14.8,-3.96 -4.53,-2.63 -8.27,-6.44 -10.8,-11.03 -2.49,-4.99 -3.79,-10.5 -3.79,-16.08 0,-5.58 1.31,-11.09 3.79,-16.08l-0 0.01z"/>
  <path class="fil3" d="M521.52 4325.37c-3.55,-1.98 -6.47,-4.94 -8.4,-8.53 -2.05,-4 -3.12,-8.45 -3.12,-12.96 0,-4.5 1.07,-8.95 3.12,-12.96 2.02,-3.59 5.02,-6.55 8.64,-8.51 3.56,-1.97 7.56,-3.01 11.62,-3.01 0.12,0 0.25,0 0.38,0 0.12,0 0.25,-0 0.38,-0 4.06,0 8.07,1.04 11.62,3 3.61,1.94 6.59,4.91 8.52,8.52 2.05,3.73 3.13,7.93 3.13,12.2 0,0.25 -0,0.51 -0.01,0.76 0,0.15 0,0.32 0,0.48 0,4.35 -1.07,8.65 -3.12,12.49 -1.94,3.65 -4.96,6.62 -8.64,8.52 -3.71,1.9 -7.83,2.9 -12,2.9 -4.17,0 -8.29,-1 -12,-2.9l-0.13 0.01zm20.88 -4.44c2.72,-1.52 4.97,-3.77 6.48,-6.49 1.66,-3.27 2.52,-6.89 2.52,-10.56 0,-3.67 -0.87,-7.29 -2.52,-10.56 -1.43,-2.73 -3.65,-4.99 -6.36,-6.48 -2.69,-1.42 -5.71,-2.16 -8.76,-2.16 -3.05,0 -6.06,0.74 -8.76,2.16 -2.71,1.49 -4.92,3.75 -6.36,6.48 -1.61,3.28 -2.45,6.9 -2.45,10.56 0,3.66 0.84,7.27 2.45,10.56 1.44,2.74 3.65,5 6.36,6.49 2.6,1.42 5.52,2.16 8.49,2.16 0.05,0 0.1,0 0.15,0 0.27,0.01 0.55,0.02 0.83,0.02 2.75,0 5.47,-0.62 7.94,-1.82l-0.01 -0.35z"/>
  <path class="fil3" d="M641.88 4284.81c3.43,3.82 5.33,8.79 5.33,13.93 0,0.48 -0.02,0.96 -0.05,1.43l0 27.96 -6 0 0 -26.76c0.03,-0.4 0.05,-0.79 0.05,-1.18 0,-3.95 -1.37,-7.78 -3.88,-10.83 -2.47,-2.62 -5.91,-4.1 -9.51,-4.1 -0.23,0 -0.46,0 -0.69,0.02 -0.28,-0.02 -0.56,-0.03 -0.84,-0.03 -3.66,0 -7.17,1.48 -9.72,4.1 -2.68,3.23 -4.14,7.29 -4.14,11.48 0,0.45 0.02,0.91 0.05,1.37l0 25.92 -6.01 0.01 0 -26.76c0.04,-0.44 0.06,-0.88 0.06,-1.32 0,-3.89 -1.33,-7.66 -3.77,-10.69 -2.51,-2.62 -5.99,-4.1 -9.62,-4.1 -0.24,0 -0.47,0.01 -0.71,0.02 -0.21,-0.01 -0.42,-0.01 -0.63,-0.01 -3.83,0 -7.48,1.62 -10.05,4.45 -2.67,3.22 -4.13,7.28 -4.13,11.47 0,0.45 0.02,0.91 0.05,1.37l0 25.92 -6.13 0.01 0 -48 6.12 0 0 8.28c1.44,-2.88 3.7,-5.27 6.49,-6.85 2.86,-1.5 6.05,-2.29 9.28,-2.29 0.02,0 0.05,0 0.08,0 0.16,0 0.33,0 0.49,0 3.65,0 7.23,1.04 10.31,3.01 3.2,2.06 5.61,5.15 6.84,8.76 1.08,-3.61 3.42,-6.72 6.59,-8.76 3.11,-1.95 6.71,-3 10.38,-3 0.06,0 0.12,0 0.18,0 0.18,0 0.37,-0 0.55,-0 4.83,0 9.49,1.85 13.01,5.17z"/>
  <path class="fil3" d="M663.12 4270.17c-0.77,-0.87 -1.2,-1.98 -1.2,-3.14 0,-0.04 0,-0.07 0,-0.11 -0,-0.08 -0.01,-0.16 -0.01,-0.24 0,-1.12 0.44,-2.19 1.21,-3 0.84,-0.77 1.95,-1.2 3.09,-1.2 0.05,0 0.1,0 0.15,0 0.06,-0 0.12,-0 0.18,-0 1.1,0 2.16,0.43 2.94,1.2 0.85,0.83 1.32,1.97 1.32,3.16 0,0.03 0,0.05 0,0.08 -0.02,1.21 -0.49,2.36 -1.32,3.24 -0.81,0.84 -1.93,1.32 -3.11,1.32 -0,0 -0.01,0 -0.01,0 -1.21,-0 -2.37,-0.48 -3.24,-1.32l-0 0zm6.24 10.2l0 48 -6.12 0 0 -48 6.12 -0z"/>
  <path class="fil3" d="M686.03 4291.29c1.81,-3.6 4.65,-6.58 8.17,-8.53 3.42,-1.96 7.31,-3.01 11.26,-3.01 0.24,0 0.49,0 0.74,0.01 0.14,0 0.28,-0 0.42,-0 3.82,0 7.58,1.04 10.86,3 3.23,1.82 5.83,4.59 7.44,7.92l0 -27.24 6.11 0.01 0 64.68 -6.48 0 0 -10.68c-1.52,3.33 -3.98,6.17 -7.07,8.15 -3.34,2.05 -7.19,3.13 -11.11,3.13 -0.29,0 -0.59,-0.01 -0.89,-0.02 -0.21,0.01 -0.43,0.01 -0.65,0.01 -3.98,0 -7.9,-1.04 -11.35,-3.01 -3.46,-2.05 -6.25,-5.05 -8.04,-8.64 -1.97,-3.78 -3.01,-8 -3.01,-12.27 0,-0.23 0,-0.46 0.01,-0.69 0.14,-4.51 1.38,-8.92 3.6,-12.84l-0.01 0.01zm36 2.88c-1.44,-2.84 -3.7,-5.18 -6.48,-6.73 -2.66,-1.57 -5.7,-2.4 -8.79,-2.4 -0.03,0 -0.06,0 -0.1,0 -0.16,-0 -0.33,-0 -0.49,-0 -3.02,0 -6,0.79 -8.62,2.29 -2.71,1.54 -4.93,3.83 -6.36,6.6 -1.51,2.95 -2.29,6.22 -2.29,9.53 0,0.22 0,0.44 0.01,0.66 -0,0.19 -0.01,0.39 -0.01,0.59 0,3.37 0.78,6.71 2.29,9.73 1.46,2.78 3.67,5.11 6.36,6.72 2.62,1.49 5.6,2.28 8.62,2.28 0.16,0 0.34,0 0.5,-0 0.03,0 0.06,0 0.09,0 3.09,0 6.13,-0.83 8.79,-2.4 2.78,-1.55 5.04,-3.89 6.48,-6.72 1.46,-3.16 2.22,-6.59 2.22,-10.08 0,-3.48 -0.76,-6.92 -2.22,-10.08l-0.01 0z"/>
  <path class="fil3" d="M747.47 4291.29c1.84,-3.57 4.68,-6.54 8.16,-8.53 3.43,-1.97 7.32,-3.01 11.27,-3.01 0.24,0 0.49,0 0.74,0.01 0.31,-0.01 0.63,-0.02 0.95,-0.02 3.9,0 7.73,1.09 11.05,3.14 3.11,1.9 5.58,4.72 7.08,8.04l0 -10.56 6.11 0 0 48 -6.12 0 0 -10.56c-1.61,3.27 -4.11,6.06 -7.2,8.03 -3.29,2.05 -7.1,3.14 -10.98,3.14 -0.34,0 -0.68,-0.01 -1.02,-0.03 -0.25,0.01 -0.52,0.02 -0.77,0.02 -3.94,0 -7.82,-1.04 -11.23,-3.01 -3.46,-2.07 -6.29,-5.06 -8.15,-8.64 -1.9,-4.04 -2.88,-8.44 -2.88,-12.9 0,-4.46 0.98,-8.86 2.88,-12.9l0.12 -0.24zm36 2.88c-1.42,-2.81 -3.64,-5.15 -6.35,-6.73 -2.73,-1.57 -5.82,-2.4 -8.98,-2.4 -0,0 -0.01,0 -0.02,0 -0.14,-0 -0.28,-0 -0.42,-0 -3.01,0 -5.97,0.79 -8.59,2.29 -2.74,1.5 -4.96,3.81 -6.36,6.6 -1.5,2.95 -2.29,6.22 -2.29,9.53 0,0.22 0,0.44 0.01,0.66 -0,0.19 -0.01,0.39 -0.01,0.59 0,3.37 0.78,6.71 2.29,9.73 1.43,2.8 3.64,5.14 6.36,6.72 2.61,1.49 5.57,2.28 8.59,2.28 0.14,0 0.28,0 0.41,-0 0.01,0 0.02,0 0.02,0 3.15,0 6.25,-0.83 8.98,-2.4 2.71,-1.58 4.93,-3.92 6.36,-6.72 1.58,-3.12 2.4,-6.58 2.4,-10.08 0,-3.5 -0.83,-6.96 -2.4,-10.08l-0.01 0z"/>
  <path class="fil3" d="M1220.15 4328.13l-15.6 -25.56 -11.28 0 0 25.56 -6 0 0 -61.08 18.24 -0c0.53,-0.04 1.05,-0.06 1.57,-0.06 5.08,0 10,1.76 13.92,4.98 3.37,3.11 5.3,7.5 5.3,12.09 0,0.25 -0.01,0.51 -0.02,0.75 0,0.19 0.01,0.37 0.01,0.56 0,3.89 -1.32,7.67 -3.73,10.72 -2.89,3.33 -6.9,5.52 -11.28,6.12l15.72 25.92 -6.85 0.01zm-26.4 -30.48l12 0c0.38,0.02 0.74,0.04 1.11,0.04 3.54,0 6.98,-1.25 9.7,-3.52 2.31,-2.38 3.61,-5.56 3.61,-8.88 0,-0.16 -0,-0.33 -0.01,-0.48 0.02,-0.29 0.03,-0.59 0.03,-0.88 0,-3.18 -1.27,-6.24 -3.51,-8.48 -2.76,-2.14 -6.15,-3.3 -9.64,-3.3 -0.47,0 -0.93,0.02 -1.4,0.06l-12.01 0 0.12 25.44z"/>
  <path class="fil3" d="M1250.27 4325.37c-3.55,-1.98 -6.46,-4.94 -8.39,-8.53 -2.05,-4 -3.13,-8.45 -3.13,-12.96 0,-4.5 1.07,-8.95 3.12,-12.96 1.97,-3.58 4.93,-6.54 8.52,-8.52 3.62,-1.96 7.68,-3 11.81,-3 0.06,0 0.13,0 0.2,0 0.12,0 0.25,-0 0.38,-0 4.06,0 8.07,1.04 11.62,3 3.61,1.94 6.59,4.91 8.52,8.52 2.05,4 3.13,8.45 3.13,12.96 0,4.5 -1.07,8.95 -3.12,12.96 -1.95,3.65 -4.97,6.62 -8.64,8.52 -3.65,1.97 -7.73,3 -11.87,3 -0.04,0 -0.09,0 -0.14,0 -0.12,0 -0.25,0 -0.37,0 -4.06,0 -8.07,-1.04 -11.62,-3l-0.01 0zm20.88 -4.44c2.73,-1.52 4.97,-3.77 6.49,-6.49 1.65,-3.27 2.52,-6.89 2.52,-10.56 0,-3.67 -0.87,-7.29 -2.52,-10.56 -1.43,-2.73 -3.64,-4.99 -6.35,-6.48 -2.68,-1.42 -5.67,-2.16 -8.7,-2.16 -0.02,0 -0.04,0 -0.06,0 -0.05,0 -0.1,0 -0.15,0 -3,0 -5.96,0.74 -8.61,2.16 -2.71,1.49 -4.93,3.75 -6.36,6.48 -1.61,3.28 -2.44,6.9 -2.44,10.56 0,3.66 0.84,7.27 2.45,10.56 1.43,2.74 3.65,5 6.36,6.49 2.6,1.42 5.52,2.16 8.49,2.16 0.05,0 0.1,0 0.15,0 0.27,0.01 0.55,0.02 0.82,0.02 2.75,0 5.47,-0.62 7.94,-1.82l-0.01 -0.35z"/>
  <path class="fil3" d="M1313.39 4282.89c3.43,-2.05 7.35,-3.14 11.34,-3.14 0.22,0 0.45,0 0.67,0.01 0.25,-0.01 0.52,-0.01 0.77,-0.01 3.94,0 7.82,1.04 11.23,3.02 3.48,1.99 6.32,4.95 8.16,8.52 1.89,4.04 2.88,8.44 2.88,12.9 0,4.46 -0.98,8.86 -2.88,12.9 -1.87,3.58 -4.7,6.57 -8.16,8.64 -3.41,1.97 -7.29,3.02 -11.23,3.02 -0.25,0 -0.52,-0 -0.77,-0.01 -0.35,0.01 -0.7,0.02 -1.05,0.02 -3.87,0 -7.67,-1.09 -10.95,-3.15 -3.15,-1.93 -5.69,-4.72 -7.32,-8.04l0 33 -5.52 0 0 -70.2 6 0 0 10.56c1.52,-3.25 3.89,-6.03 6.84,-8.05l-0 0.01zm25.92 11.04c-1.39,-2.8 -3.61,-5.11 -6.35,-6.61 -2.62,-1.5 -5.58,-2.29 -8.59,-2.29 -0.14,0 -0.28,0 -0.41,0 -0,0 -0.01,0 -0.02,0 -3.15,0 -6.25,0.83 -8.98,2.4 -2.72,1.58 -4.93,3.92 -6.36,6.72 -1.58,3.12 -2.4,6.58 -2.4,10.08 0,3.5 0.83,6.96 2.4,10.08 1.43,2.8 3.65,5.14 6.36,6.72 2.73,1.57 5.83,2.4 8.98,2.4 0,0 0.01,0 0.02,0 0.14,0 0.28,0 0.41,0 3.01,0 5.97,-0.79 8.59,-2.29 2.72,-1.57 4.93,-3.91 6.35,-6.72 1.51,-3.02 2.29,-6.36 2.29,-9.73 0,-0.2 -0,-0.4 -0.01,-0.59 0.01,-0.22 0.01,-0.44 0.01,-0.66 0,-3.32 -0.78,-6.59 -2.29,-9.54l-0.01 0.01z"/>
  <path class="fil3" d="M1361.87 4291.29c1.8,-3.6 4.65,-6.58 8.16,-8.53 3.39,-1.97 7.25,-3.01 11.17,-3.01 0.27,0 0.56,0.01 0.83,0.02 0.34,-0.02 0.68,-0.03 1.02,-0.03 3.88,0 7.69,1.09 10.98,3.14 3.14,1.87 5.62,4.69 7.08,8.04l0 -10.56 6.11 0.01 0 48 -6.12 0 0 -10.56c-1.53,3.32 -4.05,6.13 -7.19,8.03 -3.28,2.05 -7.08,3.15 -10.95,3.15 -0.35,0 -0.7,-0.01 -1.05,-0.03 -0.27,0.01 -0.55,0.02 -0.83,0.02 -3.92,0 -7.78,-1.04 -11.17,-3.02 -3.49,-2.04 -6.33,-5.04 -8.16,-8.64 -1.97,-4.01 -3,-8.43 -3,-12.9 0,-4.47 1.03,-8.88 2.99,-12.9l0.12 -0.23zm36 2.88c-1.43,-2.84 -3.69,-5.18 -6.47,-6.73 -2.66,-1.57 -5.7,-2.4 -8.79,-2.4 -0.03,0 -0.06,0 -0.1,0 -0.14,-0 -0.27,-0 -0.41,-0 -3.05,0 -6.06,0.79 -8.71,2.29 -2.71,1.54 -4.93,3.83 -6.36,6.6 -1.5,3.07 -2.29,6.44 -2.29,9.86 0,0.11 0,0.23 0,0.34 0,0.08 0,0.18 0,0.27 0,3.47 0.78,6.92 2.28,10.05 1.46,2.78 3.66,5.11 6.36,6.72 2.65,1.49 5.66,2.28 8.71,2.28 0.14,0 0.27,0 0.4,-0 0.04,0 0.07,0 0.1,0 3.09,0 6.13,-0.83 8.79,-2.4 2.78,-1.55 5.04,-3.89 6.48,-6.72 1.46,-3.16 2.22,-6.59 2.22,-10.08 0,-3.48 -0.76,-6.92 -2.22,-10.08l-0.01 0z"/>
  <polygon class="fil3" points="1773.94,4267.05 1773.94,4272.09 1756.55,4272.09 1756.55,4328.13 1750.55,4328.13 1750.55,4272.09 1733.51,4272.09 1733.51,4267.05 "/>
  <path class="fil3" d="M1798.43 4282.05c2.92,-1.66 6.23,-2.54 9.59,-2.54 0.2,0 0.41,0 0.61,0.01l0 6.36 -1.67 0c-0.42,-0.05 -0.85,-0.07 -1.27,-0.07 -7.36,0 -13.32,5.96 -13.32,13.32 0,0.74 0.06,1.49 0.19,2.22l0 26.64 -6.12 0.01 0 -48 6.12 0 0 9.36c1.07,-3.04 3.14,-5.63 5.88,-7.33l0 0.01z"/>
  <path class="fil3" d="M1820.5 4291.29c1.8,-3.6 4.64,-6.58 8.16,-8.53 3.42,-1.96 7.31,-3.01 11.26,-3.01 0.24,0 0.49,0 0.74,0.01 0.29,-0.01 0.59,-0.02 0.89,-0.02 3.92,0 7.77,1.09 11.11,3.14 3.11,1.9 5.58,4.72 7.08,8.04l0 -10.56 6.12 0 0 48 -6.12 0 0 -10.56c-1.61,3.27 -4.11,6.06 -7.2,8.03 -3.32,2.05 -7.15,3.14 -11.05,3.14 -0.32,0 -0.64,-0.01 -0.95,-0.02 -0.25,0.01 -0.51,0.01 -0.77,0.01 -3.94,0 -7.82,-1.04 -11.23,-3.01 -3.49,-2.04 -6.33,-5.04 -8.16,-8.64 -1.89,-4.04 -2.88,-8.44 -2.88,-12.9 0,-4.46 0.98,-8.86 2.88,-12.9l0.12 -0.24zm36 2.88c-1.43,-2.81 -3.65,-5.15 -6.36,-6.73 -2.73,-1.57 -5.83,-2.4 -8.98,-2.4 -0,0 -0.01,0 -0.02,0 -0.14,-0 -0.28,-0 -0.41,-0 -3.01,0 -5.97,0.79 -8.59,2.29 -2.74,1.5 -4.96,3.81 -6.36,6.6 -1.57,3.01 -2.4,6.36 -2.4,9.76 0,0.15 0,0.3 0,0.44 0,0.12 -0,0.24 -0,0.36 0,3.46 0.83,6.88 2.4,9.96 1.42,2.8 3.64,5.14 6.36,6.72 2.62,1.49 5.58,2.28 8.59,2.28 0.14,0 0.28,0 0.41,-0 0,0 0.01,0 0.02,0 3.15,0 6.25,-0.83 8.98,-2.4 2.72,-1.58 4.93,-3.92 6.36,-6.72 1.57,-3.12 2.4,-6.58 2.4,-10.08 0,-3.5 -0.83,-6.96 -2.4,-10.08l0 0z"/>
  <path class="fil3" d="M1918.18 4284.81c3.57,3.8 5.56,8.83 5.56,14.04 0,0.44 -0.01,0.88 -0.04,1.31l0 27.96 -6.12 0.01 0 -26.76c0.02,-0.4 0.04,-0.79 0.04,-1.18 0,-3.95 -1.37,-7.78 -3.88,-10.83 -2.59,-2.62 -6.13,-4.1 -9.81,-4.1 -0.25,0 -0.5,0.01 -0.74,0.02 -0.23,-0.01 -0.47,-0.01 -0.69,-0.01 -3.89,0 -7.62,1.56 -10.35,4.34 -2.67,3.22 -4.13,7.28 -4.13,11.47 0,0.45 0.02,0.91 0.05,1.37l0 26.04 -6.12 0.01 0 -48 6.6 0 0 8.16c1.44,-2.84 3.7,-5.18 6.48,-6.73 2.99,-1.5 6.29,-2.28 9.63,-2.28 0.03,0 0.06,0 0.09,0 0.12,0 0.26,-0 0.39,-0 4.85,0 9.52,1.85 13.05,5.17l0 0z"/>
  <path class="fil3" d="M1942.78 4325.37c-3.4,-2.39 -5.52,-6.19 -5.76,-10.33l6.25 0.01c0.3,2.59 1.7,4.95 3.84,6.47 2.38,1.58 5.18,2.43 8.05,2.43 0.32,0 0.64,-0.01 0.96,-0.03 0.24,0.02 0.49,0.03 0.73,0.03 2.54,0 5.02,-0.81 7.07,-2.3 1.81,-1.36 2.88,-3.49 2.88,-5.76 0,-0.04 0,-0.08 0,-0.12 0,-0.02 0,-0.05 0,-0.07 0,-1.45 -0.56,-2.85 -1.56,-3.9 -1.13,-1.11 -2.48,-1.97 -3.96,-2.52 -2.15,-0.78 -4.36,-1.42 -6.6,-1.92 -2.93,-0.77 -5.83,-1.75 -8.64,-2.88 -2.17,-0.85 -4.07,-2.26 -5.52,-4.08 -1.56,-1.98 -2.41,-4.44 -2.41,-6.97 0,-0.16 0,-0.32 0.01,-0.47 0.02,-2.34 0.78,-4.61 2.16,-6.48 1.51,-2.05 3.55,-3.66 5.88,-4.68 2.73,-1.11 5.65,-1.68 8.59,-1.68 0.05,0 0.11,0 0.17,0 0.24,-0.01 0.5,-0.02 0.74,-0.02 4.07,0 8.04,1.36 11.26,3.86 3.15,2.66 4.99,6.56 5.04,10.68l-6.12 0.01c-0.04,-2.61 -1.23,-5.08 -3.24,-6.73 -2.13,-1.72 -4.79,-2.66 -7.54,-2.66 -0.24,0 -0.5,0.01 -0.74,0.02 -0.18,-0.01 -0.37,-0.01 -0.55,-0.01 -2.46,0 -4.87,0.76 -6.89,2.17 -1.79,1.27 -2.86,3.32 -2.88,5.52 0,0.04 0,0.08 0,0.12 0,1.64 0.6,3.22 1.68,4.44 1.2,1.19 2.63,2.13 4.2,2.76 2.23,0.88 4.52,1.66 6.84,2.29 2.78,0.64 5.53,1.53 8.16,2.64 2.04,0.84 3.85,2.16 5.28,3.84 1.48,1.8 2.29,4.06 2.29,6.39 0,0.11 -0,0.22 -0,0.33 -0,0.05 -0,0.1 -0,0.15 0,2.39 -0.71,4.72 -2.04,6.69 -1.51,2.09 -3.53,3.75 -5.88,4.8 -2.52,1.12 -5.24,1.69 -8,1.69 -0.21,0 -0.43,-0 -0.63,-0.01 -0.24,0 -0.49,0.01 -0.73,0.01 -4.39,0 -8.69,-1.3 -12.35,-3.73l0 0z"/>
  <path class="fil3" d="M2000.14 4282.89c3.39,-2.05 7.28,-3.14 11.24,-3.14 0.25,0 0.51,0 0.76,0.01 0.25,-0.01 0.51,-0.01 0.77,-0.01 3.94,0 7.82,1.04 11.23,3.02 3.48,1.99 6.32,4.95 8.16,8.52 1.89,4.04 2.88,8.44 2.88,12.9 0,4.46 -0.98,8.86 -2.88,12.9 -1.87,3.58 -4.7,6.57 -8.16,8.64 -3.41,1.97 -7.29,3.02 -11.23,3.02 -0.25,0 -0.52,-0 -0.77,-0.01 -0.31,0.01 -0.63,0.02 -0.95,0.02 -3.9,0 -7.73,-1.09 -11.05,-3.14 -3.09,-1.97 -5.59,-4.76 -7.2,-8.05l0 33 -6 0.01 0 -70.2 6 0 0 10.56c1.58,-3.32 4.08,-6.11 7.2,-8.04l0 0zm25.92 11.04c-1.43,-2.78 -3.65,-5.07 -6.36,-6.6 -2.62,-1.5 -5.58,-2.29 -8.59,-2.29 -0.14,0 -0.28,0 -0.41,0 -0.02,0 -0.05,0 -0.08,0 -3.13,0 -6.21,0.83 -8.92,2.4 -2.74,1.55 -4.96,3.9 -6.36,6.72 -1.58,3.12 -2.41,6.58 -2.41,10.08 0,3.5 0.83,6.96 2.4,10.08 1.4,2.83 3.62,5.17 6.36,6.72 2.71,1.57 5.79,2.4 8.92,2.4 0.03,0 0.06,0 0.09,0 0.18,0 0.36,0.01 0.54,0.01 6.23,0 11.95,-3.47 14.81,-9.01 1.5,-3.02 2.29,-6.36 2.29,-9.73 0,-0.2 -0,-0.4 -0.01,-0.59 0.01,-0.22 0.01,-0.44 0.01,-0.66 0,-3.32 -0.78,-6.59 -2.29,-9.54l0 0.01z"/>
  <path class="fil3" d="M2057.27 4325.37c-3.62,-1.94 -6.59,-4.91 -8.52,-8.53 -2.05,-4.01 -3.13,-8.46 -3.13,-12.96 0,-4.5 1.07,-8.95 3.12,-12.96 2.02,-3.59 5.02,-6.55 8.64,-8.51 3.56,-1.97 7.56,-3.01 11.62,-3.01 0.12,0 0.25,0 0.38,0 0.12,0 0.25,-0 0.38,-0 4.06,0 8.07,1.04 11.62,3 3.65,1.93 6.66,4.9 8.64,8.52 1.97,3.78 3.01,8 3.01,12.27 0,0.23 -0,0.46 -0.01,0.69 0.01,0.25 0.01,0.51 0.01,0.77 0,4.26 -1.08,8.46 -3.13,12.2 -1.95,3.64 -4.97,6.62 -8.64,8.51 -3.56,1.97 -7.56,3.01 -11.62,3.01 -0.12,0 -0.25,-0 -0.38,-0 -0.12,0 -0.25,0 -0.38,0 -4.06,0 -8.07,-1.04 -11.62,-3l0 0zm20.76 -4.44c2.72,-1.52 4.96,-3.77 6.48,-6.49 1.66,-3.03 2.53,-6.42 2.53,-9.87 0,-0.23 -0,-0.46 -0.01,-0.68 0,-0.2 0.01,-0.4 0.01,-0.59 0,-3.47 -0.83,-6.88 -2.41,-9.97 -1.51,-2.72 -3.76,-4.96 -6.48,-6.48 -2.7,-1.42 -5.71,-2.16 -8.76,-2.16 -3.05,0 -6.06,0.74 -8.76,2.16 -2.71,1.49 -4.92,3.75 -6.36,6.48 -1.61,3.28 -2.45,6.9 -2.45,10.56 0,3.66 0.84,7.27 2.45,10.56 1.44,2.74 3.65,5 6.36,6.49 2.68,1.42 5.67,2.16 8.7,2.16 3.03,0 6.02,-0.74 8.7,-2.16l0 0z"/>
  <path class="fil3" d="M2119.31 4282.05c2.92,-1.66 6.22,-2.54 9.58,-2.54 0.2,0 0.41,0 0.61,0.01l0 6.36 -1.67 0c-0.41,-0.05 -0.83,-0.06 -1.25,-0.06 -7.49,0 -13.56,6.07 -13.56,13.56 0,0.7 0.05,1.41 0.16,2.1l0 26.64 -6.11 0 0 -48 6.12 -0 0 9.24c1.12,-3.08 3.29,-5.67 6.11,-7.33l0.01 0.01z"/>
  <path class="fil3" d="M2149.3 4285.53l0 29.64c-0.14,0.52 -0.21,1.06 -0.21,1.6 0,3.45 2.79,6.24 6.24,6.24 0.47,0 0.95,-0.05 1.41,-0.16l5.64 0.01 0 5.28 -6.6 0c-0.33,0.01 -0.66,0.03 -0.99,0.03 -3.15,0 -6.2,-1.12 -8.61,-3.16 -2.05,-2.39 -3.17,-5.44 -3.17,-8.59 0,-0.42 0.02,-0.83 0.06,-1.25l0 -29.64 -6.6 0 0 -5.16 6.6 0 0 -12 6.24 0 0 12 13.08 0 0 5.16 -13.08 0z"/>
  <path class="fil3" d="M2217.94 4306.65l-39.6 0c0.13,3.23 1.03,6.41 2.64,9.23 1.51,2.45 3.67,4.44 6.23,5.76 2.48,1.26 5.23,1.92 8.01,1.92 0.13,0 0.26,0 0.39,-0 0.18,0 0.37,0.01 0.54,0.01 3.36,0 6.64,-1.01 9.42,-2.89 2.65,-1.83 4.57,-4.56 5.4,-7.67l6.36 0c-1.05,4.55 -3.69,8.6 -7.44,11.39 -3.88,2.82 -8.55,4.34 -13.34,4.34 -0.31,0 -0.63,-0.01 -0.94,-0.02 -0.12,-0 -0.25,0 -0.37,0 -4.06,0 -8.07,-1.04 -11.62,-3 -3.52,-1.99 -6.4,-4.95 -8.28,-8.52 -1.97,-4.03 -3,-8.47 -3,-12.96 0,-4.49 1.03,-8.93 3,-12.96 1.84,-3.63 4.73,-6.65 8.28,-8.64 3.58,-1.89 7.57,-2.88 11.62,-2.88 0.13,0 0.26,0 0.39,0 0.19,-0.01 0.39,-0.01 0.59,-0.01 3.99,0 7.91,0.99 11.41,2.88 3.28,1.93 5.98,4.71 7.8,8.05 1.81,3.26 2.77,6.93 2.77,10.67 0,0.16 -0,0.33 -0,0.49 -0.12,2.05 -0.12,3.61 -0.24,4.81zm-8.16 -14.04c-1.42,-2.5 -3.55,-4.51 -6.12,-5.77 -2.61,-1.26 -5.47,-1.92 -8.37,-1.92 -0.01,0 -0.02,0 -0.03,0 -0.29,-0.01 -0.59,-0.02 -0.88,-0.02 -4.14,0 -8.13,1.6 -11.12,4.46 -3.32,3.12 -5.27,7.45 -5.4,12l34.68 0.01c-0.13,-3.12 -1.08,-6.15 -2.77,-8.77l0 0.01z"/>
  <path class="fil3" d="M2550.22 4325.37c-4.58,-2.68 -8.35,-6.54 -10.92,-11.17 -2.59,-4.96 -3.95,-10.49 -3.95,-16.08 0,-5.6 1.37,-11.12 3.95,-16.08 2.56,-4.63 6.34,-8.49 10.91,-11.16 4.55,-2.6 9.72,-3.96 14.97,-3.96 0.13,0 0.27,0 0.39,0 0.11,0 0.23,0 0.33,0 5.31,0 10.53,1.37 15.15,3.96 4.54,2.68 8.27,6.54 10.8,11.16 2.59,4.96 3.95,10.48 3.95,16.08 0,5.6 -1.37,11.12 -3.95,16.08 -2.52,4.62 -6.26,8.49 -10.79,11.16 -4.63,2.6 -9.85,3.96 -15.15,3.96 -0.1,0 -0.22,0 -0.33,0 -0.13,0 -0.27,0 -0.4,0 -5.25,0 -10.41,-1.37 -14.97,-3.96l0 0zm27.6 -4.56c3.66,-2.1 6.63,-5.24 8.52,-9.01 2.05,-4.1 3.12,-8.62 3.12,-13.21 0,-0.15 -0,-0.32 -0,-0.46 0,-0.18 0,-0.37 0,-0.54 0,-4.52 -1.07,-8.99 -3.12,-13.02 -1.89,-3.77 -4.86,-6.91 -8.52,-9 -3.69,-1.96 -7.81,-2.99 -12,-2.99 -4.19,0 -8.31,1.03 -12,2.99 -3.66,2.09 -6.64,5.23 -8.52,9 -2.05,3.91 -3.13,8.27 -3.13,12.69 0,0.29 0,0.59 0.01,0.88 -0,0.26 -0.01,0.53 -0.01,0.79 0,4.48 1.07,8.91 3.13,12.89 1.88,3.77 4.85,6.91 8.52,9 3.69,1.96 7.81,2.99 12,2.99 4.19,0 8.31,-1.03 12,-2.99l0 0.01z"/>
  <path class="fil3" d="M2617.54 4285.53l0 29.64c-0.14,0.52 -0.21,1.06 -0.21,1.6 0,3.45 2.79,6.24 6.24,6.24 0.47,0 0.95,-0.05 1.41,-0.16l5.64 0.01 0 5.28 -6.6 0c-0.33,0.01 -0.66,0.03 -0.99,0.03 -3.15,0 -6.2,-1.12 -8.61,-3.16 -2.04,-2.39 -3.17,-5.44 -3.17,-8.59 0,-0.42 0.02,-0.83 0.06,-1.25l0 -29.64 -6.6 0 0 -5.16 6.6 0 0 -12 6.24 0 0 12 13.08 0 0 5.16 -13.08 0z"/>
  <path class="fil3" d="M2655.46 4282.05c2.92,-1.66 6.23,-2.54 9.59,-2.54 0.2,0 0.41,0 0.61,0.01l0 6.36 -1.67 0c-0.51,-0.07 -1.03,-0.1 -1.54,-0.1 -7.36,0 -13.32,5.96 -13.32,13.32 0,0.79 0.07,1.59 0.21,2.37l0 26.64 -6.11 0.01 0 -48 6.12 -0 0 9.24c1.12,-3.08 3.29,-5.67 6.11,-7.33l0 0.01z"/>
  <path class="fil3" d="M2686.18 4325.37c-3.56,-1.98 -6.48,-4.94 -8.4,-8.53 -2.05,-4 -3.12,-8.45 -3.12,-12.96 0,-4.5 1.07,-8.95 3.12,-12.96 1.97,-3.58 4.93,-6.54 8.52,-8.52 3.71,-1.9 7.83,-2.9 12,-2.9 4.17,0 8.29,1 12,2.9 3.61,1.94 6.59,4.91 8.52,8.52 2.05,4 3.13,8.45 3.13,12.96 0,4.5 -1.07,8.95 -3.12,12.96 -2.02,3.59 -5.02,6.55 -8.64,8.51 -3.64,1.97 -7.72,3.01 -11.86,3.01 -0.04,0 -0.09,0 -0.14,0 -0.12,0 -0.25,0 -0.38,0 -4.06,0 -8.07,-1.04 -11.62,-3l0 0zm20.88 -4.44c2.72,-1.52 4.96,-3.77 6.48,-6.49 1.66,-3.27 2.52,-6.89 2.52,-10.56 0,-3.67 -0.87,-7.29 -2.52,-10.56 -1.43,-2.73 -3.65,-4.99 -6.36,-6.48 -2.68,-1.42 -5.67,-2.16 -8.7,-2.16 -0.02,0 -0.04,0 -0.06,0 -0.05,0 -0.1,0 -0.15,0 -3,0 -5.96,0.74 -8.61,2.16 -2.71,1.49 -4.92,3.75 -6.35,6.48 -1.61,3.28 -2.45,6.9 -2.45,10.56 0,3.66 0.84,7.27 2.45,10.56 1.44,2.74 3.65,5 6.36,6.49 2.6,1.42 5.52,2.16 8.49,2.16 0.05,0 0.1,0 0.15,0 0.24,0.01 0.5,0.01 0.75,0.01 2.77,0 5.52,-0.62 8.01,-1.81l0 -0.35z"/>
  <path class="fil3" d="M2739.1 4325.37c-3.4,-2.39 -5.52,-6.19 -5.76,-10.33l6.25 0.01c0.25,2.62 1.66,4.99 3.84,6.47 2.35,1.59 5.13,2.44 7.98,2.44 0.34,0 0.68,-0.01 1.02,-0.04 0.24,0.01 0.49,0.02 0.73,0.02 2.54,0 5.02,-0.81 7.07,-2.3 1.81,-1.36 2.88,-3.49 2.88,-5.76 0,-0.04 0,-0.08 0,-0.12 -0,-0.02 -0,-0.05 -0,-0.07 0,-1.45 -0.56,-2.85 -1.56,-3.9 -1.15,-1.13 -2.55,-2 -4.08,-2.52 -2.1,-0.8 -4.28,-1.45 -6.48,-1.92 -2.93,-0.78 -5.83,-1.75 -8.64,-2.88 -2.18,-0.88 -4.12,-2.28 -5.64,-4.08 -1.49,-2.04 -2.29,-4.51 -2.29,-7.04 0,-0.13 0,-0.26 0,-0.39 0.02,-2.34 0.78,-4.61 2.16,-6.48 1.52,-2.05 3.55,-3.66 5.89,-4.68 2.69,-1.11 5.58,-1.68 8.49,-1.68 0.09,0 0.18,0 0.26,0 0.21,-0.01 0.44,-0.02 0.66,-0.02 4.1,0 8.08,1.36 11.33,3.85 3.16,2.66 5,6.56 5.04,10.68l-6.12 0.01c-0.04,-2.61 -1.23,-5.08 -3.24,-6.73 -2.33,-1.55 -5.06,-2.38 -7.86,-2.38 -2.8,0 -5.53,0.83 -7.86,2.38 -1.79,1.27 -2.86,3.32 -2.88,5.52 -0,0.11 -0.01,0.23 -0.01,0.34 0,1.57 0.61,3.08 1.69,4.22 1.19,1.21 2.62,2.15 4.2,2.76 2.23,0.88 4.52,1.66 6.84,2.29 2.77,0.68 5.52,1.57 8.16,2.64 2.04,0.84 3.86,2.16 5.28,3.84 1.47,1.9 2.28,4.23 2.28,6.64 0,0.03 0,0.06 0,0.08 0,2.45 -0.76,4.83 -2.15,6.84 -1.43,2.11 -3.43,3.78 -5.76,4.81 -2.53,1.11 -5.25,1.69 -8.01,1.69 -0.21,0 -0.43,-0 -0.63,-0.01 -0.01,-0 -0.03,-0 -0.05,-0 -4.68,0 -9.24,-1.47 -13.03,-4.2l0 0.01z"/>
  <path class="fil1" d="M2849.62 330.12c-0.1,0 -0.2,0 -0.29,0 -51.42,0 -93.12,41.7 -93.12,93.12 0,21.68 7.58,42.71 21.41,59.4l0 0c9.33,11.57 21.33,20.76 34.92,26.76l0 0 3.24 1.32 1.32 0 2.88 0.96 1.8 0.6 2.64 0.72 2.28 0.6 2.28 0 2.64 0 2.16 0 3 0 1.92 0 3.36 0 13.08 0 3.48 0 1.8 0 3 0 2.16 0 2.64 0 2.28 0 2.28 -0.6 2.64 -0.72 1.8 -0.6 2.88 -0.96 1.32 0 3.36 -1.32 0 0c13.65,-5.77 25.77,-14.77 35.27,-26.16l0 0c13.83,-16.69 21.41,-37.72 21.41,-59.4 0,-51.42 -41.7,-93.12 -93.12,-93.12 -0.09,0 -0.2,0 -0.29,0l1.56 -0.6zm18.48 96.96c-1.17,0.83 -2.42,1.56 -3.72,2.16l0 0c-4.51,2.01 -9.4,3.06 -14.34,3.06 -4.94,0 -9.83,-1.04 -14.34,-3.06l0 0c-1.3,-0.6 -2.55,-1.32 -3.72,-2.16 -9.76,-6.3 -15.66,-17.12 -15.66,-28.74 0,-18.89 15.32,-34.2 34.2,-34.2 18.89,0 34.2,15.32 34.2,34.2 0,11.62 -5.91,22.44 -15.66,28.74l-0.96 -0zm-38.28 6.6l0.72 0 2.88 1.32 2.28 0.96 0 0c4.29,1.51 8.82,2.28 13.37,2.28 4.55,0 9.08,-0.77 13.38,-2.28l0 0 2.28 -0.96 2.88 -1.32 0.72 0 1.32 -0.72c21.9,7.15 38.76,24.83 44.87,47.05 -7.81,9.08 -17.43,16.47 -28.2,21.72l0 0 -3.36 1.44 -0.72 0 -3 1.2 -1.32 0 -2.76 0.96 -1.68 0 -2.4 0.72 -2.16 0 -2.16 0 -2.4 0 -1.92 0 -1.92 3.35 -1.8 0 -3.12 0 -12 0 -3.12 0 -1.8 0 -2.76 0 -1.92 0 -2.4 0 -2.16 0 -2.16 0 -2.4 -0.72 -1.68 0 -2.76 -0.96 -1.2 0 -3.12 -1.2 -0.72 0 -3.36 -1.44 0 0.01c-10.78,-5.25 -20.39,-12.64 -28.21,-21.72 6.12,-22.21 22.98,-39.9 44.88,-47.05l1.08 -2.64zm90.72 40.44c-7.09,-20.9 -23.11,-37.61 -43.68,-45.59 8.59,-7.67 13.5,-18.65 13.5,-30.16 0,-22.33 -18.11,-40.44 -40.44,-40.44 -22.33,0 -40.44,18.11 -40.44,40.44 0,11.51 4.91,22.49 13.5,30.16 -20.58,7.98 -36.6,24.7 -43.68,45.6 -10.72,-14.84 -16.5,-32.7 -16.5,-51.02 0,-48.11 39.01,-87.12 87.12,-87.12 48.11,0 87.12,39.01 87.12,87.12 0,18.31 -5.77,36.18 -16.5,51.02l-0 -0.01z"/>
 </g>
</svg>
